<svg width="59" height="59" viewBox="0 0 59 59" fill="none" xmlns="http://www.w3.org/2000/svg">
<path d="M30.7748 54.5949C30.4587 55.0814 30.5985 55.7324 31.0847 56.0475L31.0847 56.0475L33.2485 57.4482L33.2484 57.4483L33.2528 57.4508C34.0145 57.8913 34.8481 58.1 35.6709 58.1C37.3479 58.1 38.98 57.232 39.8758 55.6812C39.8759 55.6811 39.876 55.681 39.876 55.6809L50.7649 37.1072C50.7649 37.1072 50.7649 37.1071 50.765 37.1071C51.0582 36.6074 50.8914 35.9635 50.3913 35.6705L50.3912 35.6705C49.8895 35.3766 49.2465 35.5444 48.9543 36.0456L38.0612 54.6244L38.0609 54.6249C37.3015 55.9392 35.6181 56.3908 34.3473 55.6587L32.2275 54.2851C31.7403 53.9689 31.09 54.1075 30.7748 54.5949ZM30.7748 54.5949C30.7749 54.5948 30.7749 54.5948 30.775 54.5947L30.8588 54.6492L30.7748 54.5949C30.7748 54.5949 30.7748 54.5949 30.7748 54.5949Z" fill="black" stroke="black" stroke-width="0.2"/>
<path d="M30.6781 4.12926L30.6074 4.05855C32.8183 1.84768 35.0337 0.9 38.002 0.9H53.2065C55.8817 0.9 58.058 3.07623 58.0579 5.75147V20.956C58.0579 23.9242 57.1111 26.1396 54.8994 28.3505L54.8993 28.3505M30.6781 4.12926L54.8286 28.2798L54.8993 28.3505M30.6781 4.12926L30.6074 4.05856C30.1969 4.46922 30.1969 5.1331 30.6074 5.54366C31.0181 5.95432 31.682 5.95434 32.0926 5.54365C33.012 4.62418 33.8839 3.98972 34.8262 3.5844C35.7681 3.17923 36.7863 3.0005 38.002 3.0005H53.2065C54.723 3.0005 55.9574 4.23482 55.9574 5.75135V20.956C55.9574 22.1721 55.7786 23.1903 55.3734 24.1321C54.9679 25.0743 54.3333 25.9459 53.4133 26.8654L53.4133 26.8655L25.1918 55.1269M30.6781 4.12926L25.1918 55.1269M54.8993 28.3505L26.6769 56.611L26.6768 56.6111C25.76 57.5279 24.542 58.0325 23.2459 58.0325C21.9507 58.0325 20.7317 57.5278 19.8168 56.6119L2.34587 39.141C1.42905 38.2251 0.924414 37.0062 0.924414 35.7101C0.924414 34.4149 1.42908 33.1969 2.34584 32.2801L2.34589 32.2801L26.9013 7.75857C23.7596 7.05155 21.2089 6.67189 19.2951 6.51004C18.3203 6.42759 17.5116 6.40173 16.8748 6.41771C16.3534 6.4308 15.9512 6.47188 15.6686 6.53129M54.8993 28.3505L15.6686 6.53129M15.6686 6.53129C16.265 7.06519 17.8288 8.08079 21.2632 9.43545L15.6686 6.53129ZM25.1918 55.1269C24.1531 56.1638 22.3386 56.1645 21.3021 55.127L21.302 55.127L3.83095 37.6559C3.31093 37.1359 3.02491 36.4457 3.02491 35.7101C3.02491 34.9755 3.31081 34.2853 3.8299 33.7662L3.82995 33.7661L29.2973 8.33495C29.6716 8.4301 30.0466 8.52548 30.4345 8.62943C34.2397 9.64893 37.2527 10.7014 39.5111 11.6437M25.1918 55.1269L39.5111 11.6437M39.5111 11.6437C39.0885 12.4611 38.8522 13.3705 38.8522 14.3039C38.8522 17.5037 41.4542 20.1056 44.6539 20.1056C47.8537 20.1056 50.4556 17.5037 50.4556 14.3039C50.4556 11.1042 47.8537 8.50221 44.6539 8.50221C44.0731 8.50221 43.6037 8.97279 43.6037 9.55246C43.6037 10.1321 44.0731 10.6027 44.6539 10.6027C46.6951 10.6027 48.355 12.2628 48.355 14.3038C48.355 16.345 46.695 18.0049 44.6539 18.0049C42.6129 18.0049 40.9528 16.3449 40.9528 14.3038C40.9528 13.6687 41.1185 13.0477 41.4253 12.5003C42.8685 13.1962 43.8131 13.788 44.2667 14.1926C44.1066 14.2272 43.8926 14.2615 43.6096 14.2859L43.6094 14.2859C43.0319 14.3374 42.6044 14.8467 42.6558 15.4245C42.7042 15.9704 43.1619 16.3833 43.701 16.3833C43.7318 16.3833 43.7631 16.3812 43.7906 16.3794L43.7922 16.3793L43.7944 16.3791L43.7995 16.3786C44.0931 16.3524 44.6922 16.2989 45.263 16.09C45.8361 15.8803 46.4032 15.5053 46.5866 14.822L46.5867 14.8219C46.7132 14.3492 46.5891 13.8771 46.2878 13.4196C45.9875 12.9635 45.5069 12.5146 44.9036 12.0785C43.6965 11.206 41.9748 10.3686 40.1443 9.62002C36.4816 8.12214 32.3581 6.97003 30.9778 6.60011L30.9519 6.6967L30.9778 6.60011C26.7538 5.46826 22.6949 4.69334 19.5466 4.41907C17.6146 4.25019 16.1669 4.27435 15.1545 4.51076C14.1403 4.74759 13.5394 5.20427 13.3491 5.91538L13.3491 5.91544L13.3484 5.9178C13.3056 6.0782 13.2411 6.32 13.2994 6.63624C13.358 6.95395 13.538 7.33545 13.9623 7.78565C14.8074 8.68227 16.6384 9.86903 20.4933 11.389C21.0322 11.6022 21.6434 11.3377 21.8557 10.7976C22.0678 10.258 21.8033 9.64779 21.2633 9.43549L39.5111 11.6437ZM2.41655 39.0703L19.8875 56.5413L1.02441 35.7101C1.02441 36.9797 1.51853 38.1732 2.41655 39.0703Z" fill="black" stroke="black" stroke-width="0.2"/>
<path d="M23.8989 33.8653L23.8989 33.8653C24.1313 34.2386 24.33 34.6935 24.4705 35.1174C24.6117 35.5435 24.6906 35.9277 24.6906 36.1607C24.6906 37.6772 23.4563 38.9115 21.9398 38.9115C20.4232 38.9115 19.1889 37.6772 19.1889 36.1607C19.1889 35.6039 19.3548 35.0677 19.6684 34.6093C19.9961 34.1312 19.8732 33.4771 19.3953 33.1495L19.3951 33.1493C18.9164 32.8228 18.2632 32.9445 17.9355 33.4225L17.9354 33.4226C17.3814 34.2318 17.0883 35.1789 17.0883 36.1608C17.0883 37.1195 17.3708 38.0105 17.8518 38.7635L17.396 39.2193C16.9853 39.6299 16.9853 40.2939 17.396 40.7044C17.6008 40.9092 17.8698 41.0121 18.1385 41.0121C18.4074 41.0121 18.6763 40.9092 18.8811 40.7044L19.3369 40.2486C20.0899 40.7296 20.9809 41.0121 21.9396 41.0121C24.6148 41.0121 26.7911 38.8359 26.7911 36.1607C26.7911 35.2117 26.3231 33.7832 25.6822 32.7542L25.6822 32.7542C25.1225 31.8559 24.8905 31.1721 24.8905 30.4589C24.8905 28.9424 26.1248 27.7081 27.6413 27.7081C28.3741 27.7081 29.0368 27.9995 29.5301 28.4696C29.5309 28.4709 29.5324 28.4734 29.5349 28.4781L29.5358 28.4797C29.5408 28.489 29.5517 28.5089 29.5688 28.5271L29.5687 28.5272L29.5731 28.5314C29.5912 28.5485 29.6112 28.5593 29.6204 28.5643L29.6221 28.5653C29.6267 28.5678 29.6293 28.5693 29.6306 28.57C30.1008 29.0633 30.3921 29.7262 30.3921 30.4588C30.3921 31.1943 30.1052 31.8864 29.5842 32.4074C29.1735 32.8171 29.1736 33.4819 29.583 33.8924C29.9919 34.3035 30.6578 34.3019 31.0681 33.8937L31.0683 33.8935C31.986 32.9758 32.4926 31.7559 32.4926 30.4588C32.4926 29.5001 32.2101 28.6091 31.729 27.8561L32.1849 27.4003C32.1849 27.4003 32.1849 27.4003 32.1849 27.4003C32.5958 26.9897 32.5958 26.3257 32.1851 25.9152C31.7746 25.5045 31.1106 25.5045 30.7 25.9152C30.7 25.9152 30.7 25.9152 30.7 25.9152L30.2442 26.371C29.4912 25.8899 28.6002 25.6075 27.6415 25.6075C24.9663 25.6075 22.79 27.7837 22.79 30.4589C22.79 31.9032 23.3864 33.0421 23.8989 33.8653Z" fill="black" stroke="black" stroke-width="0.2"/>
</svg>
