<svg width="54" height="56" viewBox="0 0 54 56" fill="none" xmlns="http://www.w3.org/2000/svg">
<path d="M12.9167 10.875C12.9196 9.97036 12.6686 9.08304 12.1922 8.31399C11.7158 7.54494 11.0331 6.92503 10.2218 6.52478C9.41047 6.12454 8.50312 5.96002 7.60294 6.04994C6.70275 6.13986 5.84588 6.48062 5.12978 7.03345C4.41369 7.58627 3.86712 8.32898 3.55224 9.17707C3.23737 10.0252 3.16684 10.9446 3.34867 11.8308C3.53051 12.717 3.9574 13.5344 4.5808 14.19C5.2042 14.8456 5.99908 15.313 6.87501 15.5392V24.3358C5.85111 24.6141 4.94721 25.2216 4.30279 26.0645C3.65836 26.9074 3.30922 27.939 3.30922 29C3.30922 30.0611 3.65836 31.0926 4.30279 31.9355C4.94721 32.7785 5.85111 33.3859 6.87501 33.6642V42.4608C5.73597 42.7549 4.74328 43.4544 4.08303 44.428C3.42279 45.4017 3.1403 46.5827 3.28853 47.7497C3.43677 48.9167 4.00554 49.9896 4.88823 50.7673C5.77093 51.545 6.90694 51.974 8.08334 51.974C9.25975 51.974 10.3958 51.545 11.2785 50.7673C12.1612 49.9896 12.7299 48.9167 12.8782 47.7497C13.0264 46.5827 12.7439 45.4017 12.0837 44.428C11.4234 43.4544 10.4307 42.7549 9.29168 42.4608V33.6642C10.3156 33.3859 11.2195 32.7785 11.8639 31.9355C12.5083 31.0926 12.8575 30.0611 12.8575 29C12.8575 27.939 12.5083 26.9074 11.8639 26.0645C11.2195 25.2216 10.3156 24.6141 9.29168 24.3358V15.5392C10.3266 15.272 11.2437 14.6693 11.8996 13.8253C12.5555 12.9814 12.9132 11.9439 12.9167 10.875ZM5.66668 10.875C5.66668 10.397 5.80841 9.92981 6.07396 9.53239C6.33951 9.13497 6.71694 8.82522 7.15853 8.64231C7.60012 8.4594 8.08603 8.41154 8.55481 8.50479C9.0236 8.59803 9.45421 8.8282 9.79219 9.16618C10.1302 9.50415 10.3603 9.93476 10.4536 10.4035C10.5468 10.8723 10.499 11.3582 10.3161 11.7998C10.1331 12.2414 9.82339 12.6189 9.42597 12.8844C9.02855 13.1499 8.56132 13.2917 8.08334 13.2917C7.44241 13.2917 6.82772 13.0371 6.3745 12.5839C5.92129 12.1306 5.66668 11.516 5.66668 10.875ZM10.5 47.125C10.5 47.603 10.3583 48.0702 10.0927 48.4676C9.82718 48.8651 9.44975 49.1748 9.00816 49.3577C8.56658 49.5406 8.08066 49.5885 7.61188 49.4952C7.14309 49.402 6.71248 49.1718 6.3745 48.8339C6.03653 48.4959 5.80636 48.0653 5.71311 47.5965C5.61987 47.1277 5.66772 46.6418 5.85064 46.2002C6.03355 45.7586 6.3433 45.3812 6.74072 45.1156C7.13814 44.8501 7.60537 44.7083 8.08334 44.7083C8.72429 44.7083 9.33897 44.963 9.79219 45.4162C10.2454 45.8694 10.5 46.4841 10.5 47.125ZM10.5 29C10.5 29.478 10.3583 29.9452 10.0927 30.3426C9.82718 30.7401 9.44975 31.0498 9.00816 31.2327C8.56658 31.4156 8.08066 31.4635 7.61188 31.3702C7.14309 31.277 6.71248 31.0468 6.3745 30.7089C6.03653 30.3709 5.80636 29.9403 5.71311 29.4715C5.61987 29.0027 5.66772 28.5168 5.85064 28.0752C6.03355 27.6336 6.3433 27.2562 6.74072 26.9906C7.13814 26.7251 7.60537 26.5833 8.08334 26.5833C8.72429 26.5833 9.33897 26.838 9.79219 27.2912C10.2454 27.7444 10.5 28.3591 10.5 29Z" fill="black"/>
<path d="M45.5415 7.25H17.7498C17.4294 7.25 17.122 7.37731 16.8954 7.60391C16.6688 7.83052 16.5415 8.13786 16.5415 8.45833C16.5415 8.7788 16.6688 9.08615 16.8954 9.31275C17.122 9.53936 17.4294 9.66667 17.7498 9.66667H45.5415C45.862 9.66667 46.1693 9.53936 46.3959 9.31275C46.6225 9.08615 46.7499 8.7788 46.7499 8.45833C46.7499 8.13786 46.6225 7.83052 46.3959 7.60391C46.1693 7.37731 45.862 7.25 45.5415 7.25Z" fill="black"/>
<path d="M17.7498 14.5H33.4582C33.7787 14.5 34.086 14.3727 34.3126 14.1461C34.5392 13.9195 34.6665 13.6122 34.6665 13.2917C34.6665 12.9712 34.5392 12.6639 34.3126 12.4373C34.086 12.2107 33.7787 12.0834 33.4582 12.0834H17.7498C17.4294 12.0834 17.122 12.2107 16.8954 12.4373C16.6688 12.6639 16.5415 12.9712 16.5415 13.2917C16.5415 13.6122 16.6688 13.9195 16.8954 14.1461C17.122 14.3727 17.4294 14.5 17.7498 14.5Z" fill="black"/>
<path d="M46.7499 44.7083C46.7499 44.3879 46.6225 44.0805 46.3959 43.8539C46.1693 43.6273 45.862 43.5 45.5415 43.5H17.7498C17.4294 43.5 17.122 43.6273 16.8954 43.8539C16.6688 44.0805 16.5415 44.3879 16.5415 44.7083C16.5415 45.0288 16.6688 45.3361 16.8954 45.5628C17.122 45.7894 17.4294 45.9167 17.7498 45.9167H45.5415C45.862 45.9167 46.1693 45.7894 46.3959 45.5628C46.6225 45.3361 46.7499 45.0288 46.7499 44.7083Z" fill="black"/>
<path d="M17.7498 48.3334C17.4294 48.3334 17.122 48.4607 16.8954 48.6873C16.6688 48.9139 16.5415 49.2212 16.5415 49.5417C16.5415 49.8622 16.6688 50.1695 16.8954 50.3961C17.122 50.6227 17.4294 50.75 17.7498 50.75H33.4582C33.7787 50.75 34.086 50.6227 34.3126 50.3961C34.5392 50.1695 34.6665 49.8622 34.6665 49.5417C34.6665 49.2212 34.5392 48.9139 34.3126 48.6873C34.086 48.4607 33.7787 48.3334 33.4582 48.3334H17.7498Z" fill="black"/>
<path d="M45.5415 25.375H17.7498C17.4294 25.375 17.122 25.5023 16.8954 25.7289C16.6688 25.9555 16.5415 26.2629 16.5415 26.5833C16.5415 26.9038 16.6688 27.2112 16.8954 27.4378C17.122 27.6644 17.4294 27.7917 17.7498 27.7917H45.5415C45.862 27.7917 46.1693 27.6644 46.3959 27.4378C46.6225 27.2112 46.7499 26.9038 46.7499 26.5833C46.7499 26.2629 46.6225 25.9555 46.3959 25.7289C46.1693 25.5023 45.862 25.375 45.5415 25.375Z" fill="black"/>
<path d="M17.7498 32.625H33.4582C33.7787 32.625 34.086 32.4977 34.3126 32.2711C34.5392 32.0445 34.6665 31.7372 34.6665 31.4167C34.6665 31.0962 34.5392 30.7889 34.3126 30.5623C34.086 30.3357 33.7787 30.2084 33.4582 30.2084H17.7498C17.4294 30.2084 17.122 30.3357 16.8954 30.5623C16.6688 30.7889 16.5415 31.0962 16.5415 31.4167C16.5415 31.7372 16.6688 32.0445 16.8954 32.2711C17.122 32.4977 17.4294 32.625 17.7498 32.625Z" fill="black"/>
</svg>
