<svg width="57" height="57" viewBox="0 0 57 57" fill="none" xmlns="http://www.w3.org/2000/svg">
<g clip-path="url(#clip0_521_2105)">
<path d="M3.42069 51.5504C3.32862 51.5504 3.23655 51.5504 3.19074 51.5041C2.96079 51.4583 2.73083 51.2741 2.63876 51.0442L0.109259 46.353C-0.120695 45.8931 0.0171875 45.3416 0.477097 45.1116L1.99516 44.2834L1.16696 42.5359C0.983266 42.1222 1.12115 41.616 1.48899 41.3861L3.14493 40.3284L2.27092 38.4888C2.08678 38.0747 2.22511 37.5689 2.59295 37.339L4.2947 36.1892L3.42069 34.2575C3.32862 34.0738 3.32862 33.8439 3.37488 33.6597L5.12245 26.991C2.36299 24.4615 1.25903 20.4602 2.31673 16.6431C3.05286 14.0215 4.75461 11.814 7.14578 10.4801C9.5374 9.14665 12.251 8.82462 14.9184 9.5603C20.3453 11.0784 23.5188 16.7351 21.9549 22.162C20.8972 26.0254 17.7237 29.1064 14.1365 29.8426L8.89379 48.1468C8.84753 48.3768 8.66384 48.5609 8.4797 48.6988L3.8806 51.3662C3.74272 51.5041 3.55858 51.5504 3.42069 51.5504ZM2.13304 46.3072L3.78853 49.3424L7.23785 47.3191L12.5268 28.8307C12.6189 28.4628 12.9409 28.2329 13.2629 28.1866C16.3902 27.773 19.1955 25.1056 20.1616 21.7021C21.403 17.2409 18.8277 12.6418 14.3664 11.3999C12.2048 10.8021 9.95149 11.0784 8.01979 12.1361C6.08808 13.2396 4.66254 15.0334 4.06475 17.1488C3.14493 20.4144 4.20263 23.8637 6.73213 25.9333C7.0079 26.1633 7.14578 26.5311 7.05416 26.899L5.26033 33.7976L6.31803 36.1434C6.50218 36.557 6.36429 37.017 5.99601 37.2932L4.2947 38.3967L5.16826 40.1905C5.3524 40.6042 5.21452 41.1103 4.84623 41.3403L3.19074 42.398L4.06475 44.1918C4.2947 44.6517 4.11056 45.1574 3.69646 45.3874L2.13304 46.3072Z" fill="black"/>
<path d="M13.0326 19.3565C12.7564 19.3565 12.4344 19.3103 12.1586 19.2182C11.3309 18.9882 10.641 18.4367 10.1811 17.7006C9.76701 16.9649 9.67494 16.0909 9.90489 15.2631C10.4111 13.5614 12.2044 12.5495 13.9062 13.0094C14.734 13.2394 15.4238 13.7913 15.8837 14.5275C16.2978 15.2631 16.3899 16.1372 16.1599 16.9649C15.7458 18.4367 14.4582 19.3565 13.0326 19.3565ZM13.0326 14.7574C12.4344 14.7574 11.8366 15.1711 11.6987 15.7689C11.6067 16.1372 11.6529 16.505 11.8366 16.827C12.0208 17.1486 12.3428 17.3785 12.6644 17.4706C13.4005 17.7006 14.1824 17.2407 14.4124 16.505C14.504 16.1372 14.4582 15.7689 14.274 15.4473C14.0903 15.1253 13.7683 14.8953 13.4463 14.8032C13.2626 14.7574 13.1705 14.7574 13.0326 14.7574Z" fill="black"/>
<path d="M20.9432 23.2196C18.9656 23.2196 17.126 22.576 15.5626 21.38C15.1485 21.058 15.1027 20.5065 15.3784 20.0924C15.7005 19.6783 16.2524 19.6324 16.6661 19.9082C17.9079 20.8743 19.3797 21.3342 20.9432 21.3342C22.185 21.3342 23.4268 21.0122 24.4845 20.3681C24.9445 20.0924 25.4964 20.2765 25.7264 20.6901C26.0022 21.1501 25.8185 21.702 25.4044 21.932C24.0709 22.806 22.507 23.2196 20.9432 23.2196Z" fill="black"/>
<path d="M13.0785 14.7576H13.0327C12.5265 14.7113 12.1587 14.2977 12.1587 13.7915C12.4807 9.19243 16.3437 5.60522 20.9428 5.60522C25.0361 5.60522 28.6696 8.50257 29.5432 12.5497C29.6352 13.0559 29.3595 13.5158 28.8533 13.6536C28.3476 13.7457 27.8877 13.4695 27.7498 12.9638C27.0599 9.6986 24.2084 7.39905 20.9428 7.39905C17.3098 7.39905 14.2283 10.2501 13.9983 13.8836C13.9525 14.3435 13.5384 14.7576 13.0785 14.7576Z" fill="black"/>
<path d="M42.5589 44.7431C42.3289 44.7431 42.0989 44.6515 41.9153 44.4674L26.2784 28.8305C25.9105 28.4626 25.0823 27.4965 25.0823 26.3468L24.1167 16.1829C24.1167 16.1371 24.1167 16.1371 24.1167 16.0909C24.1167 14.849 24.4845 13.9292 25.3123 13.0557C26.1405 12.2279 27.0603 11.8596 28.118 11.8596H28.3479H28.44L38.6038 12.7794C39.7994 12.7794 40.7192 13.6534 41.0875 13.9755L56.7244 29.6124C57.0922 29.9802 57.0922 30.5322 56.7244 30.9L43.2029 44.4674C43.065 44.6515 42.8351 44.7431 42.5589 44.7431ZM25.9563 16.0451L26.922 26.2089V26.301C26.922 26.6688 27.1982 27.1287 27.6118 27.5428L42.6051 42.5357L54.7927 30.3023L39.7994 15.3089C39.3858 14.8953 38.8796 14.6191 38.558 14.6191C38.5118 14.6191 38.5118 14.6191 38.4659 14.6191L28.118 13.6534C27.566 13.6534 27.1061 13.8834 26.6462 14.3433C26.1405 14.849 25.9563 15.3089 25.9563 16.0451Z" fill="black"/>
<path d="M35.6143 28.6006C35.3843 28.6006 35.1544 28.5086 34.9702 28.3249C34.6024 27.9566 34.6024 27.4051 34.9702 27.0368L39.4314 22.576C39.7993 22.2077 40.3512 22.2077 40.7191 22.576C41.0874 22.9439 41.0874 23.4958 40.7191 23.8637L36.2583 28.3249C36.0742 28.5086 35.8442 28.6006 35.6143 28.6006Z" fill="black"/>
<path d="M40.8109 33.7976C40.581 33.7976 40.351 33.7055 40.1673 33.5218C39.799 33.154 39.799 32.602 40.1673 32.2341L44.6281 27.7729C44.9964 27.4051 45.5479 27.4051 45.9162 27.7729C46.284 28.1408 46.284 28.6928 45.9162 29.0606L41.455 33.5218C41.2708 33.7055 41.0409 33.7976 40.8109 33.7976Z" fill="black"/>
</g>
<defs>
<clipPath id="clip0_521_2105">
<rect width="57" height="57" fill="white"/>
</clipPath>
</defs>
</svg>
