<svg width="60" height="60" viewBox="0 0 60 60" fill="none" xmlns="http://www.w3.org/2000/svg">
<path d="M29.159 0.548249L29.1591 0.548158C29.7149 0.0905073 30.5356 0.168454 30.9956 0.721889C34.949 5.99056 43.2051 9.22163 52.5022 9.22163C53.1931 9.22163 53.7532 9.7817 53.7532 10.4726V29.9834C53.7532 46.9544 41.6741 56.4605 30.3353 59.702C30.1091 59.7659 29.8701 59.7659 29.6446 59.702C18.3053 56.4606 6.22656 46.9544 6.22656 29.9834V10.4726C6.22656 9.7817 6.78663 9.22163 7.47757 9.22163C16.7745 9.22163 25.0305 5.99021 28.984 0.72216C29.0372 0.658532 29.0956 0.600367 29.159 0.548249ZM29.9181 57.1746L29.9899 57.1961L30.0617 57.1746C40.3654 54.0853 51.2517 45.3712 51.2517 29.9834V11.9485V11.7068L51.0102 11.6986C42.2016 11.3984 34.6404 8.44276 30.173 3.6338L29.9899 3.43663L29.8067 3.6338C25.3394 8.44276 17.7781 11.3984 8.9696 11.6986L8.72811 11.7068V11.9485V29.9834C8.72811 45.3712 19.6143 54.0853 29.9181 57.1746Z" fill="black" stroke="#EF7A00" stroke-width="0.5"/>
<path d="M25.8945 25.2589L25.7627 25.279L19.2963 26.2683L19.2956 26.2684C18.6137 26.3706 18.1442 27.0063 18.2464 27.6878L18.2465 27.688C18.2853 27.9483 18.4057 28.1892 18.59 28.377L18.5906 28.3775L23.3129 33.2189L23.401 33.3091L23.3807 33.4336L22.2637 40.2886C22.1527 40.9704 22.6151 41.6132 23.2972 41.7242C23.5738 41.7693 23.8581 41.72 24.1033 41.5847L25.8945 25.2589ZM25.8945 25.2589L25.9512 25.1382L28.8546 18.956C28.9718 18.7526 29.1411 18.5845 29.3455 18.4693L29.3458 18.469C29.9723 18.1143 30.7674 18.3327 31.1255 18.9559L34.029 25.1368L34.0857 25.2575L34.2175 25.2777L40.6839 26.2669L40.6844 26.267C40.9451 26.3063 41.1862 26.4265 41.3737 26.6106L41.3737 26.6106C41.8658 27.0935 41.8733 27.8842 41.3906 28.3761L41.39 28.3766L36.6677 33.2179L36.5797 33.3082L36.5999 33.4327L37.7169 40.2876C37.7169 40.2877 37.7169 40.2877 37.7169 40.2877C37.7619 40.5648 37.7127 40.8486 37.5768 41.0943C37.2426 41.6986 36.4814 41.9179 35.8773 41.5838L35.8772 41.5837L30.1113 38.3963L29.9903 38.3295L29.8693 38.3963L24.1035 41.5846L25.8945 25.2589ZM32.1075 26.9267L32.1071 26.926L30.2161 22.9023L29.9898 22.4208L29.7636 22.9023L27.873 26.926L27.8727 26.9267C27.6967 27.3043 27.3431 27.5685 26.9305 27.6306L26.9299 27.6307L22.5596 28.299L22.0788 28.3726L22.4185 28.7207L25.6311 32.0139L25.6312 32.014C25.909 32.2984 26.0351 32.6973 25.9707 33.0887L25.9707 33.0891L25.2291 37.6416L25.1463 38.1496L25.5968 37.9005L29.3839 35.8063L29.3839 35.8062C29.7614 35.5975 30.2188 35.5975 30.5962 35.8062L30.5963 35.8063L34.3833 37.9005L34.8338 38.1496L34.7511 37.6416L34.0095 33.0891L34.0094 33.0887C33.945 32.6972 34.0712 32.2979 34.3488 32.0142L34.3491 32.0139L37.5617 28.7207L37.9013 28.3726L37.4205 28.299L33.0503 27.6307L33.0497 27.6306C32.6371 27.5685 32.2835 27.3043 32.1075 26.9267Z" fill="black" stroke="#EF7A00" stroke-width="0.5"/>
</svg>
