<svg width="52" height="52" viewBox="0 0 52 52" fill="none" xmlns="http://www.w3.org/2000/svg">
<path d="M52.0001 5.1636C52.0032 4.4574 51.7222 3.77961 51.22 3.28295L48.7172 0.780033C48.2229 0.280289 47.549 -0.00059795 46.8461 9.55776e-07H46.8374C46.1387 0.000428746 45.4696 0.281487 44.9801 0.780033L33.6269 12.1332H11.2671V2.60002C11.2671 1.16402 10.103 9.55776e-07 8.66708 9.55776e-07H6.93377C3.10641 0.00427886 0.00476618 3.10593 0.000488281 6.93328V45.2839C0.217378 49.0821 3.38097 52.0391 7.18513 51.9996H49.4001C50.836 51.9996 52.0001 50.8356 52.0001 49.3996V14.7333C52.0001 13.2973 50.836 12.1332 49.4001 12.1332H46.1068L51.2201 7.01995C51.7176 6.53021 51.9985 5.86175 52.0001 5.1636ZM31.0096 21.6665C30.8262 21.6915 30.6418 21.627 30.5139 21.4932C30.3849 21.365 30.3211 21.1852 30.3405 21.0044L30.669 18.0578C30.6828 17.9962 30.7001 17.9354 30.721 17.8758L34.1348 21.2896C34.0785 21.3017 34.0273 21.3294 33.9684 21.3364L31.0096 21.6665ZM35.55 20.2512L31.7575 16.4578L41.2041 7.01131L44.9948 10.8012L35.55 20.2512ZM42.4261 5.78492L43.7114 4.50052L47.5004 8.2904L46.216 9.57565L42.4261 5.78492ZM1.73381 6.93328C1.73672 4.06264 4.06312 1.73614 6.93377 1.73332H8.66708C9.1457 1.73332 9.53379 2.12133 9.53379 2.59994V37.2663C9.53379 37.7449 9.14578 38.1329 8.66708 38.1329H6.93377C4.94275 38.1323 3.04798 38.9894 1.73381 40.485V6.93328ZM49.4001 13.8666C49.8787 13.8666 50.2668 14.2546 50.2668 14.7333V49.3996C50.2668 49.8783 49.8788 50.2663 49.4001 50.2663H7.18513C4.32408 50.3144 1.92725 48.1119 1.73381 45.257V45.0663C1.73672 42.1957 4.06312 39.8693 6.93377 39.8663H8.66708C10.103 39.8663 11.267 38.7023 11.267 37.2664V13.8666H31.8935L29.9253 15.8347C29.3759 16.3761 29.0302 17.0906 28.9469 17.8575L28.6184 20.8102C28.5914 21.0982 28.6188 21.3886 28.699 21.6665H13.867C13.3884 21.6665 13.0003 22.0545 13.0003 22.5332C13.0003 23.0118 13.3883 23.3998 13.867 23.3998H16.4671V46.7996C16.4671 47.2782 16.8551 47.6663 17.3338 47.6663C17.8125 47.6663 18.2005 47.2783 18.2005 46.7996V34.6664H27.7337V41.5997H21.667C21.1884 41.5997 20.8004 41.9877 20.8004 42.4663C20.8004 42.9449 21.1884 43.333 21.667 43.333H39.0002C39.9575 43.333 40.7335 42.557 40.7335 41.5997V28.5998C40.7335 28.1212 40.3455 27.7331 39.8669 27.7331C39.3883 27.7331 39.0002 28.1211 39.0002 28.5998V32.9331H18.2004V23.3999H30.9472C31.0318 23.4 31.1163 23.3954 31.2003 23.386L34.1617 23.0489C34.9133 22.9636 35.6149 22.6296 36.155 22.0999L44.3779 13.8666H49.4001V13.8666ZM39.0002 34.6664V41.5997H29.4669V34.6664H39.0002ZM49.9981 5.79099L48.7258 7.0641L44.9368 3.27508L46.2099 2.00197C46.3765 1.83103 46.6048 1.73418 46.8435 1.73332C47.0865 1.73392 47.319 1.83197 47.4891 2.00548L49.9955 4.50668C50.1698 4.67831 50.2676 4.91291 50.2668 5.15752C50.2661 5.39623 50.1692 5.62458 49.9981 5.79099Z" fill="black"/>
</svg>
