<svg width="56" height="56" viewBox="0 0 56 56" fill="none" xmlns="http://www.w3.org/2000/svg">
<mask id="path-1-outside-1_521_2356" maskUnits="userSpaceOnUse" x="2" y="2" width="52" height="52" fill="black">
<rect fill="white" x="2" y="2" width="52" height="52"/>
<path d="M3.17037 39.7982L17.8755 25.093L5.65775 12.8752C5.18295 12.4015 4.80619 11.8389 4.549 11.2195C4.2918 10.6 4.15922 9.93599 4.15884 9.26529C4.15846 8.5946 4.29028 7.9304 4.54677 7.31069C4.80326 6.69097 5.17938 6.12789 5.65363 5.65363C6.12789 5.17938 6.69097 4.80326 7.31069 4.54677C7.9304 4.29028 8.5946 4.15846 9.26529 4.15884C9.93599 4.15922 10.6 4.2918 11.2195 4.549C11.8389 4.80619 12.4015 5.18296 12.8752 5.65775L25.093 17.8755L39.7982 3.17037C39.8522 3.11636 39.9163 3.07351 39.9868 3.04428C40.0573 3.01505 40.1329 3 40.2093 3C40.2856 3 40.3612 3.01505 40.4318 3.04428C40.5023 3.07351 40.5664 3.11636 40.6203 3.17037L52.8296 15.3797C52.8836 15.4336 52.9265 15.4977 52.9557 15.5682C52.985 15.6388 53 15.7144 53 15.7907C53 15.8671 52.985 15.9427 52.9557 16.0132C52.9265 16.0837 52.8836 16.1478 52.8296 16.2018L38.1245 30.907L48.7599 41.5424C48.8204 41.6046 48.8659 41.6797 48.8929 41.7621C48.8953 41.7688 48.9017 41.7732 48.9038 41.78L51.8108 51.0824C51.8425 51.1837 51.8458 51.2917 51.8205 51.3947C51.7951 51.4978 51.7421 51.592 51.667 51.667C51.592 51.7421 51.4978 51.7951 51.3947 51.8205C51.2917 51.8458 51.1837 51.8425 51.0824 51.8108L41.78 48.9038C41.7732 48.9017 41.7688 48.8953 41.7621 48.8929C41.6797 48.8659 41.6046 48.8204 41.5424 48.7599L30.907 38.1245L16.2018 52.8296C16.1478 52.8836 16.0837 52.9265 16.0132 52.9557C15.9427 52.9849 15.8671 53 15.7907 53C15.7144 53 15.6388 52.9849 15.5682 52.9557C15.4977 52.9265 15.4336 52.8836 15.3797 52.8296L3.17037 40.6203C3.11636 40.5664 3.07351 40.5023 3.04428 40.4318C3.01505 40.3612 3 40.2856 3 40.2093C3 40.1329 3.01505 40.0573 3.04428 39.9868C3.07351 39.9163 3.11636 39.8522 3.17037 39.7982ZM39.9186 45.4918L42.2941 43.1163L13.1744 13.9966L10.7989 16.3721L39.9186 45.4918ZM41.9535 47.5267L47.5267 41.9535L46.3139 40.7407L40.7407 46.3139L41.9535 47.5267ZM16.3721 10.7989L13.9966 13.1744L43.1163 42.2941L45.4918 39.9186L16.3721 10.7989ZM14.3372 8.76403L8.76403 14.3372L9.97676 15.55L15.5499 9.97676L14.3372 8.76403ZM12.0531 6.4799C11.6876 6.11177 11.2531 5.8194 10.7744 5.61958C10.2957 5.41976 9.78225 5.31642 9.26352 5.31547C8.74479 5.31452 8.23097 5.416 7.75154 5.61407C7.27212 5.81214 6.83651 6.10292 6.46972 6.46972C6.10292 6.83652 5.81215 7.27212 5.61407 7.75155C5.416 8.23097 5.31452 8.74479 5.31547 9.26352C5.31641 9.78225 5.41977 10.2957 5.61958 10.7744C5.8194 11.2531 6.11177 11.6876 6.4799 12.0531L7.94188 13.5151L13.5151 7.94188L12.0531 6.4799ZM40.2093 4.40357L25.9152 18.6977L27.4186 20.2011L41.7127 5.90699L40.2093 4.40357ZM39.6778 27.7093L37.7634 25.7948C37.6575 25.6851 37.5989 25.5383 37.6002 25.3858C37.6015 25.2334 37.6627 25.0876 37.7704 24.9798C37.8782 24.872 38.0241 24.8108 38.1765 24.8095C38.3289 24.8082 38.4758 24.8668 38.5855 24.9727L40.5 26.8871L42.5848 24.8023L40.6703 22.8878C40.5644 22.7781 40.5058 22.6313 40.5072 22.4788C40.5085 22.3264 40.5696 22.1806 40.6774 22.0728C40.7852 21.965 40.931 21.9038 41.0835 21.9025C41.2359 21.9012 41.3828 21.9598 41.4924 22.0657L43.407 23.9802L45.4918 21.8954L43.5773 19.9808C43.4714 19.8712 43.4128 19.7243 43.4141 19.5719C43.4155 19.4194 43.4766 19.2736 43.5844 19.1658C43.6922 19.058 43.838 18.9969 43.9905 18.9955C44.1429 18.9942 44.2898 19.0528 44.3994 19.1587L46.3139 21.0732L48.3988 18.9884L46.4843 17.0738C46.3784 16.9642 46.3198 16.8173 46.3211 16.6649C46.3224 16.5125 46.3836 16.3666 46.4914 16.2588C46.5992 16.151 46.745 16.0899 46.8974 16.0886C47.0499 16.0872 47.1967 16.1458 47.3064 16.2518L49.2209 18.1662L51.5964 15.7907L42.5349 6.72915L28.2408 21.0233L37.3023 30.0848L39.6778 27.7093ZM48.0806 43.0439L43.0439 48.0806L50.3698 50.3698L48.0806 43.0439ZM15.7907 51.5964L18.1662 49.2209L16.2518 47.3064C16.1962 47.2527 16.1519 47.1886 16.1215 47.1177C16.091 47.0467 16.075 46.9704 16.0743 46.8932C16.0736 46.816 16.0883 46.7395 16.1176 46.668C16.1468 46.5966 16.19 46.5317 16.2445 46.4771C16.2991 46.4225 16.3641 46.3793 16.4355 46.3501C16.507 46.3209 16.5835 46.3061 16.6607 46.3068C16.7379 46.3075 16.8142 46.3235 16.8851 46.354C16.9561 46.3845 17.0202 46.4288 17.0738 46.4843L18.9884 48.3988L21.0732 46.3139L19.1587 44.3994C19.1032 44.3458 19.0589 44.2816 19.0284 44.2107C18.998 44.1398 18.9819 44.0635 18.9813 43.9863C18.9806 43.9091 18.9953 43.8325 19.0245 43.7611C19.0538 43.6896 19.0969 43.6247 19.1515 43.5701C19.2061 43.5155 19.271 43.4723 19.3425 43.4431C19.4139 43.4139 19.4905 43.3992 19.5677 43.3998C19.6449 43.4005 19.7212 43.4166 19.7921 43.447C19.863 43.4775 19.9272 43.5218 19.9808 43.5773L21.8954 45.4918L23.9802 43.407L22.0657 41.4924C22.0102 41.4388 21.9659 41.3746 21.9354 41.3037C21.9049 41.2328 21.8889 41.1565 21.8882 41.0793C21.8876 41.0021 21.9023 40.9255 21.9315 40.8541C21.9607 40.7826 22.0039 40.7177 22.0585 40.6631C22.1131 40.6085 22.178 40.5654 22.2495 40.5361C22.3209 40.5069 22.3975 40.4922 22.4747 40.4929C22.5519 40.4935 22.6281 40.5096 22.6991 40.5401C22.77 40.5705 22.8342 40.6148 22.8878 40.6703L24.8023 42.5848L26.8872 40.5L24.9727 38.5855C24.8668 38.4758 24.8082 38.3289 24.8095 38.1765C24.8108 38.0241 24.872 37.8782 24.9798 37.7704C25.0876 37.6626 25.2334 37.6015 25.3858 37.6002C25.5383 37.5989 25.6851 37.6575 25.7948 37.7634L27.7093 39.6778L30.0848 37.3023L21.0233 28.2408L6.72915 42.5349L15.7907 51.5964ZM5.90699 41.7127L20.2011 27.4186L18.6977 25.9152L4.40356 40.2093L5.90699 41.7127Z"/>
</mask>
<path d="M3.17037 39.7982L17.8755 25.093L5.65775 12.8752C5.18295 12.4015 4.80619 11.8389 4.549 11.2195C4.2918 10.6 4.15922 9.93599 4.15884 9.26529C4.15846 8.5946 4.29028 7.9304 4.54677 7.31069C4.80326 6.69097 5.17938 6.12789 5.65363 5.65363C6.12789 5.17938 6.69097 4.80326 7.31069 4.54677C7.9304 4.29028 8.5946 4.15846 9.26529 4.15884C9.93599 4.15922 10.6 4.2918 11.2195 4.549C11.8389 4.80619 12.4015 5.18296 12.8752 5.65775L25.093 17.8755L39.7982 3.17037C39.8522 3.11636 39.9163 3.07351 39.9868 3.04428C40.0573 3.01505 40.1329 3 40.2093 3C40.2856 3 40.3612 3.01505 40.4318 3.04428C40.5023 3.07351 40.5664 3.11636 40.6203 3.17037L52.8296 15.3797C52.8836 15.4336 52.9265 15.4977 52.9557 15.5682C52.985 15.6388 53 15.7144 53 15.7907C53 15.8671 52.985 15.9427 52.9557 16.0132C52.9265 16.0837 52.8836 16.1478 52.8296 16.2018L38.1245 30.907L48.7599 41.5424C48.8204 41.6046 48.8659 41.6797 48.8929 41.7621C48.8953 41.7688 48.9017 41.7732 48.9038 41.78L51.8108 51.0824C51.8425 51.1837 51.8458 51.2917 51.8205 51.3947C51.7951 51.4978 51.7421 51.592 51.667 51.667C51.592 51.7421 51.4978 51.7951 51.3947 51.8205C51.2917 51.8458 51.1837 51.8425 51.0824 51.8108L41.78 48.9038C41.7732 48.9017 41.7688 48.8953 41.7621 48.8929C41.6797 48.8659 41.6046 48.8204 41.5424 48.7599L30.907 38.1245L16.2018 52.8296C16.1478 52.8836 16.0837 52.9265 16.0132 52.9557C15.9427 52.9849 15.8671 53 15.7907 53C15.7144 53 15.6388 52.9849 15.5682 52.9557C15.4977 52.9265 15.4336 52.8836 15.3797 52.8296L3.17037 40.6203C3.11636 40.5664 3.07351 40.5023 3.04428 40.4318C3.01505 40.3612 3 40.2856 3 40.2093C3 40.1329 3.01505 40.0573 3.04428 39.9868C3.07351 39.9163 3.11636 39.8522 3.17037 39.7982ZM39.9186 45.4918L42.2941 43.1163L13.1744 13.9966L10.7989 16.3721L39.9186 45.4918ZM41.9535 47.5267L47.5267 41.9535L46.3139 40.7407L40.7407 46.3139L41.9535 47.5267ZM16.3721 10.7989L13.9966 13.1744L43.1163 42.2941L45.4918 39.9186L16.3721 10.7989ZM14.3372 8.76403L8.76403 14.3372L9.97676 15.55L15.5499 9.97676L14.3372 8.76403ZM12.0531 6.4799C11.6876 6.11177 11.2531 5.8194 10.7744 5.61958C10.2957 5.41976 9.78225 5.31642 9.26352 5.31547C8.74479 5.31452 8.23097 5.416 7.75154 5.61407C7.27212 5.81214 6.83651 6.10292 6.46972 6.46972C6.10292 6.83652 5.81215 7.27212 5.61407 7.75155C5.416 8.23097 5.31452 8.74479 5.31547 9.26352C5.31641 9.78225 5.41977 10.2957 5.61958 10.7744C5.8194 11.2531 6.11177 11.6876 6.4799 12.0531L7.94188 13.5151L13.5151 7.94188L12.0531 6.4799ZM40.2093 4.40357L25.9152 18.6977L27.4186 20.2011L41.7127 5.90699L40.2093 4.40357ZM39.6778 27.7093L37.7634 25.7948C37.6575 25.6851 37.5989 25.5383 37.6002 25.3858C37.6015 25.2334 37.6627 25.0876 37.7704 24.9798C37.8782 24.872 38.0241 24.8108 38.1765 24.8095C38.3289 24.8082 38.4758 24.8668 38.5855 24.9727L40.5 26.8871L42.5848 24.8023L40.6703 22.8878C40.5644 22.7781 40.5058 22.6313 40.5072 22.4788C40.5085 22.3264 40.5696 22.1806 40.6774 22.0728C40.7852 21.965 40.931 21.9038 41.0835 21.9025C41.2359 21.9012 41.3828 21.9598 41.4924 22.0657L43.407 23.9802L45.4918 21.8954L43.5773 19.9808C43.4714 19.8712 43.4128 19.7243 43.4141 19.5719C43.4155 19.4194 43.4766 19.2736 43.5844 19.1658C43.6922 19.058 43.838 18.9969 43.9905 18.9955C44.1429 18.9942 44.2898 19.0528 44.3994 19.1587L46.3139 21.0732L48.3988 18.9884L46.4843 17.0738C46.3784 16.9642 46.3198 16.8173 46.3211 16.6649C46.3224 16.5125 46.3836 16.3666 46.4914 16.2588C46.5992 16.151 46.745 16.0899 46.8974 16.0886C47.0499 16.0872 47.1967 16.1458 47.3064 16.2518L49.2209 18.1662L51.5964 15.7907L42.5349 6.72915L28.2408 21.0233L37.3023 30.0848L39.6778 27.7093ZM48.0806 43.0439L43.0439 48.0806L50.3698 50.3698L48.0806 43.0439ZM15.7907 51.5964L18.1662 49.2209L16.2518 47.3064C16.1962 47.2527 16.1519 47.1886 16.1215 47.1177C16.091 47.0467 16.075 46.9704 16.0743 46.8932C16.0736 46.816 16.0883 46.7395 16.1176 46.668C16.1468 46.5966 16.19 46.5317 16.2445 46.4771C16.2991 46.4225 16.3641 46.3793 16.4355 46.3501C16.507 46.3209 16.5835 46.3061 16.6607 46.3068C16.7379 46.3075 16.8142 46.3235 16.8851 46.354C16.9561 46.3845 17.0202 46.4288 17.0738 46.4843L18.9884 48.3988L21.0732 46.3139L19.1587 44.3994C19.1032 44.3458 19.0589 44.2816 19.0284 44.2107C18.998 44.1398 18.9819 44.0635 18.9813 43.9863C18.9806 43.9091 18.9953 43.8325 19.0245 43.7611C19.0538 43.6896 19.0969 43.6247 19.1515 43.5701C19.2061 43.5155 19.271 43.4723 19.3425 43.4431C19.4139 43.4139 19.4905 43.3992 19.5677 43.3998C19.6449 43.4005 19.7212 43.4166 19.7921 43.447C19.863 43.4775 19.9272 43.5218 19.9808 43.5773L21.8954 45.4918L23.9802 43.407L22.0657 41.4924C22.0102 41.4388 21.9659 41.3746 21.9354 41.3037C21.9049 41.2328 21.8889 41.1565 21.8882 41.0793C21.8876 41.0021 21.9023 40.9255 21.9315 40.8541C21.9607 40.7826 22.0039 40.7177 22.0585 40.6631C22.1131 40.6085 22.178 40.5654 22.2495 40.5361C22.3209 40.5069 22.3975 40.4922 22.4747 40.4929C22.5519 40.4935 22.6281 40.5096 22.6991 40.5401C22.77 40.5705 22.8342 40.6148 22.8878 40.6703L24.8023 42.5848L26.8872 40.5L24.9727 38.5855C24.8668 38.4758 24.8082 38.3289 24.8095 38.1765C24.8108 38.0241 24.872 37.8782 24.9798 37.7704C25.0876 37.6626 25.2334 37.6015 25.3858 37.6002C25.5383 37.5989 25.6851 37.6575 25.7948 37.7634L27.7093 39.6778L30.0848 37.3023L21.0233 28.2408L6.72915 42.5349L15.7907 51.5964ZM5.90699 41.7127L20.2011 27.4186L18.6977 25.9152L4.40356 40.2093L5.90699 41.7127Z" fill="black"/>
<path d="M3.17037 39.7982L17.8755 25.093L5.65775 12.8752C5.18295 12.4015 4.80619 11.8389 4.549 11.2195C4.2918 10.6 4.15922 9.93599 4.15884 9.26529C4.15846 8.5946 4.29028 7.9304 4.54677 7.31069C4.80326 6.69097 5.17938 6.12789 5.65363 5.65363C6.12789 5.17938 6.69097 4.80326 7.31069 4.54677C7.9304 4.29028 8.5946 4.15846 9.26529 4.15884C9.93599 4.15922 10.6 4.2918 11.2195 4.549C11.8389 4.80619 12.4015 5.18296 12.8752 5.65775L25.093 17.8755L39.7982 3.17037C39.8522 3.11636 39.9163 3.07351 39.9868 3.04428C40.0573 3.01505 40.1329 3 40.2093 3C40.2856 3 40.3612 3.01505 40.4318 3.04428C40.5023 3.07351 40.5664 3.11636 40.6203 3.17037L52.8296 15.3797C52.8836 15.4336 52.9265 15.4977 52.9557 15.5682C52.985 15.6388 53 15.7144 53 15.7907C53 15.8671 52.985 15.9427 52.9557 16.0132C52.9265 16.0837 52.8836 16.1478 52.8296 16.2018L38.1245 30.907L48.7599 41.5424C48.8204 41.6046 48.8659 41.6797 48.8929 41.7621C48.8953 41.7688 48.9017 41.7732 48.9038 41.78L51.8108 51.0824C51.8425 51.1837 51.8458 51.2917 51.8205 51.3947C51.7951 51.4978 51.7421 51.592 51.667 51.667C51.592 51.7421 51.4978 51.7951 51.3947 51.8205C51.2917 51.8458 51.1837 51.8425 51.0824 51.8108L41.78 48.9038C41.7732 48.9017 41.7688 48.8953 41.7621 48.8929C41.6797 48.8659 41.6046 48.8204 41.5424 48.7599L30.907 38.1245L16.2018 52.8296C16.1478 52.8836 16.0837 52.9265 16.0132 52.9557C15.9427 52.9849 15.8671 53 15.7907 53C15.7144 53 15.6388 52.9849 15.5682 52.9557C15.4977 52.9265 15.4336 52.8836 15.3797 52.8296L3.17037 40.6203C3.11636 40.5664 3.07351 40.5023 3.04428 40.4318C3.01505 40.3612 3 40.2856 3 40.2093C3 40.1329 3.01505 40.0573 3.04428 39.9868C3.07351 39.9163 3.11636 39.8522 3.17037 39.7982ZM39.9186 45.4918L42.2941 43.1163L13.1744 13.9966L10.7989 16.3721L39.9186 45.4918ZM41.9535 47.5267L47.5267 41.9535L46.3139 40.7407L40.7407 46.3139L41.9535 47.5267ZM16.3721 10.7989L13.9966 13.1744L43.1163 42.2941L45.4918 39.9186L16.3721 10.7989ZM14.3372 8.76403L8.76403 14.3372L9.97676 15.55L15.5499 9.97676L14.3372 8.76403ZM12.0531 6.4799C11.6876 6.11177 11.2531 5.8194 10.7744 5.61958C10.2957 5.41976 9.78225 5.31642 9.26352 5.31547C8.74479 5.31452 8.23097 5.416 7.75154 5.61407C7.27212 5.81214 6.83651 6.10292 6.46972 6.46972C6.10292 6.83652 5.81215 7.27212 5.61407 7.75155C5.416 8.23097 5.31452 8.74479 5.31547 9.26352C5.31641 9.78225 5.41977 10.2957 5.61958 10.7744C5.8194 11.2531 6.11177 11.6876 6.4799 12.0531L7.94188 13.5151L13.5151 7.94188L12.0531 6.4799ZM40.2093 4.40357L25.9152 18.6977L27.4186 20.2011L41.7127 5.90699L40.2093 4.40357ZM39.6778 27.7093L37.7634 25.7948C37.6575 25.6851 37.5989 25.5383 37.6002 25.3858C37.6015 25.2334 37.6627 25.0876 37.7704 24.9798C37.8782 24.872 38.0241 24.8108 38.1765 24.8095C38.3289 24.8082 38.4758 24.8668 38.5855 24.9727L40.5 26.8871L42.5848 24.8023L40.6703 22.8878C40.5644 22.7781 40.5058 22.6313 40.5072 22.4788C40.5085 22.3264 40.5696 22.1806 40.6774 22.0728C40.7852 21.965 40.931 21.9038 41.0835 21.9025C41.2359 21.9012 41.3828 21.9598 41.4924 22.0657L43.407 23.9802L45.4918 21.8954L43.5773 19.9808C43.4714 19.8712 43.4128 19.7243 43.4141 19.5719C43.4155 19.4194 43.4766 19.2736 43.5844 19.1658C43.6922 19.058 43.838 18.9969 43.9905 18.9955C44.1429 18.9942 44.2898 19.0528 44.3994 19.1587L46.3139 21.0732L48.3988 18.9884L46.4843 17.0738C46.3784 16.9642 46.3198 16.8173 46.3211 16.6649C46.3224 16.5125 46.3836 16.3666 46.4914 16.2588C46.5992 16.151 46.745 16.0899 46.8974 16.0886C47.0499 16.0872 47.1967 16.1458 47.3064 16.2518L49.2209 18.1662L51.5964 15.7907L42.5349 6.72915L28.2408 21.0233L37.3023 30.0848L39.6778 27.7093ZM48.0806 43.0439L43.0439 48.0806L50.3698 50.3698L48.0806 43.0439ZM15.7907 51.5964L18.1662 49.2209L16.2518 47.3064C16.1962 47.2527 16.1519 47.1886 16.1215 47.1177C16.091 47.0467 16.075 46.9704 16.0743 46.8932C16.0736 46.816 16.0883 46.7395 16.1176 46.668C16.1468 46.5966 16.19 46.5317 16.2445 46.4771C16.2991 46.4225 16.3641 46.3793 16.4355 46.3501C16.507 46.3209 16.5835 46.3061 16.6607 46.3068C16.7379 46.3075 16.8142 46.3235 16.8851 46.354C16.9561 46.3845 17.0202 46.4288 17.0738 46.4843L18.9884 48.3988L21.0732 46.3139L19.1587 44.3994C19.1032 44.3458 19.0589 44.2816 19.0284 44.2107C18.998 44.1398 18.9819 44.0635 18.9813 43.9863C18.9806 43.9091 18.9953 43.8325 19.0245 43.7611C19.0538 43.6896 19.0969 43.6247 19.1515 43.5701C19.2061 43.5155 19.271 43.4723 19.3425 43.4431C19.4139 43.4139 19.4905 43.3992 19.5677 43.3998C19.6449 43.4005 19.7212 43.4166 19.7921 43.447C19.863 43.4775 19.9272 43.5218 19.9808 43.5773L21.8954 45.4918L23.9802 43.407L22.0657 41.4924C22.0102 41.4388 21.9659 41.3746 21.9354 41.3037C21.9049 41.2328 21.8889 41.1565 21.8882 41.0793C21.8876 41.0021 21.9023 40.9255 21.9315 40.8541C21.9607 40.7826 22.0039 40.7177 22.0585 40.6631C22.1131 40.6085 22.178 40.5654 22.2495 40.5361C22.3209 40.5069 22.3975 40.4922 22.4747 40.4929C22.5519 40.4935 22.6281 40.5096 22.6991 40.5401C22.77 40.5705 22.8342 40.6148 22.8878 40.6703L24.8023 42.5848L26.8872 40.5L24.9727 38.5855C24.8668 38.4758 24.8082 38.3289 24.8095 38.1765C24.8108 38.0241 24.872 37.8782 24.9798 37.7704C25.0876 37.6626 25.2334 37.6015 25.3858 37.6002C25.5383 37.5989 25.6851 37.6575 25.7948 37.7634L27.7093 39.6778L30.0848 37.3023L21.0233 28.2408L6.72915 42.5349L15.7907 51.5964ZM5.90699 41.7127L20.2011 27.4186L18.6977 25.9152L4.40356 40.2093L5.90699 41.7127Z" stroke="black" stroke-width="0.4" mask="url(#path-1-outside-1_521_2356)"/>
</svg>
