<svg width="60" height="60" viewBox="0 0 60 60" fill="none" xmlns="http://www.w3.org/2000/svg">
<g clip-path="url(#clip0_521_274)">
<path d="M52.9705 7.02974C43.5977 -2.34292 28.3472 -2.34292 18.9746 7.02974C9.87982 16.1246 9.61024 30.7538 18.1658 40.1768L14.9251 43.4175L13.1768 41.6692C12.9569 41.4495 12.6589 41.3259 12.348 41.3259C12.0372 41.3259 11.739 41.4495 11.5192 41.6692L1.41085 51.7777C0.50107 52.6874 0 53.897 0 55.1836C0 56.4702 0.50107 57.6797 1.41073 58.5895C2.32051 59.4991 3.53012 60.0002 4.81661 60.0002C6.10321 60.0002 7.3127 59.4991 8.22248 58.5895L18.331 48.4811C18.5507 48.2613 18.6743 47.9632 18.6743 47.6523C18.6743 47.3415 18.5507 47.0433 18.331 46.8235L16.5827 45.0752L19.8234 41.8345C24.3909 45.9816 30.1818 48.0552 35.9725 48.0552C42.1282 48.0552 48.2841 45.712 52.9705 41.0256C62.3431 31.6529 62.3431 16.4024 52.9705 7.02974ZM6.5649 56.9318C6.09794 57.3988 5.47708 57.656 4.81661 57.656C4.15625 57.656 3.53527 57.3989 3.06843 56.9318C2.60135 56.4648 2.34419 55.844 2.34419 55.1836C2.34419 54.5232 2.60135 53.9023 3.06843 53.4353L12.348 44.1556L15.8446 47.6522L6.5649 56.9318ZM51.3129 39.3679C42.8542 47.8267 29.0909 47.8267 20.6323 39.3681C12.1736 30.9093 12.1736 17.146 20.6321 8.68731C24.8615 4.45792 30.417 2.34323 35.9725 2.34323C41.528 2.34323 47.0835 4.45792 51.3128 8.68731C59.7716 17.146 59.7716 30.9093 51.3129 39.3679Z" fill="black"/>
<path d="M54.8224 23.7986C54.7317 23.3155 54.3231 22.9382 53.8402 22.8679C53.3537 22.797 52.8536 23.0518 52.6318 23.4921C52.4111 23.9301 52.4814 24.4688 52.8185 24.8284C53.1491 25.181 53.6747 25.2942 54.1215 25.1101C54.6309 24.9006 54.932 24.3388 54.8224 23.7986Z" fill="black"/>
<path d="M53.2028 28.2655C52.5853 28.0707 51.9271 28.4133 51.7324 29.0307C50.9297 31.5745 49.5617 33.8255 47.6659 35.7212C44.5425 38.8446 40.3897 40.5649 35.9723 40.5649C31.555 40.5649 27.4021 38.8447 24.2785 35.7212C17.8307 29.2733 17.8307 18.7819 24.2785 12.334C27.4021 9.21044 31.555 7.49027 35.9723 7.49027C40.3897 7.49027 44.5425 9.21044 47.6659 12.334C49.5403 14.2084 50.9488 16.5294 51.7391 19.0458C51.9329 19.6635 52.591 20.0068 53.2085 19.8129C53.8261 19.619 54.1695 18.961 53.9755 18.3434C53.0726 15.468 51.464 12.8167 49.3235 10.6763C45.7573 7.10993 41.0157 5.14597 35.9723 5.14597C30.9289 5.14597 26.1873 7.10993 22.621 10.6763C15.2592 18.0382 15.2592 30.0169 22.621 37.3788C26.1873 40.945 30.9288 42.9091 35.9723 42.9091C41.0158 42.9091 45.7573 40.9451 49.3235 37.3788C51.4578 35.2447 53.0638 32.6018 53.9679 29.736C54.1626 29.1186 53.8201 28.4602 53.2028 28.2655Z" fill="black"/>
<path d="M39.0928 18.0156L34.5493 22.5592L32.8524 20.862C31.337 19.3467 28.8715 19.3467 27.3562 20.862C25.8409 22.3773 25.8409 24.8429 27.3562 26.3582L32.5138 31.5158C33.0751 32.077 33.8122 32.3576 34.5494 32.3576C35.2867 32.3576 36.0239 32.077 36.5851 31.5158L44.5891 23.5116C46.1044 21.9964 46.1044 19.5308 44.5891 18.0154C44.5891 18.0154 44.5891 18.0154 44.5891 18.0153C43.0736 16.5002 40.6081 16.5003 39.0928 18.0156ZM42.9314 21.8541L34.9275 29.8582C34.7191 30.0667 34.3798 30.0667 34.1713 29.8583L29.0139 24.7007C28.4126 24.0994 28.4126 23.1211 29.0139 22.5198C29.3145 22.2192 29.7094 22.0688 30.1044 22.0688C30.4993 22.0688 30.8943 22.2192 31.1948 22.5197L33.7207 25.0456C33.9405 25.2654 34.2386 25.3889 34.5494 25.3889C34.8603 25.3889 35.1585 25.2653 35.3782 25.0456L40.7505 19.6733C41.3518 19.0719 42.3303 19.072 42.9314 19.6731C43.5327 20.2744 43.5327 21.2528 42.9314 21.8541Z" fill="black"/>
</g>
<defs>
<clipPath id="clip0_521_274">
<rect width="60" height="60" fill="white"/>
</clipPath>
</defs>
</svg>
