<svg width="56" height="57" viewBox="0 0 56 57" fill="none" xmlns="http://www.w3.org/2000/svg">
<g clip-path="url(#clip0_521_2226)">
<path d="M9.19114 6.93607H17.3051C17.8135 6.93607 18.2257 6.52402 18.2257 6.01554C18.2257 5.50706 17.8136 5.09501 17.3051 5.09501H9.19114C8.68266 5.09501 8.27061 5.50706 8.27061 6.01554C8.27061 6.52402 8.68266 6.93607 9.19114 6.93607Z" fill="black" stroke="black" stroke-width="0.2"/>
<path d="M9.19114 11.8702H17.3051C17.8135 11.8702 18.2257 11.4582 18.2257 10.9497C18.2257 10.4412 17.8136 10.0292 17.3051 10.0292H9.19114C8.68266 10.0292 8.27061 10.4412 8.27061 10.9497C8.27061 11.4582 8.68266 11.8702 9.19114 11.8702Z" fill="black" stroke="black" stroke-width="0.2"/>
<path d="M14.3023 51.0766H14.3023C14.5684 51.0766 14.8261 50.9799 15.0501 50.8603C15.274 50.7407 15.4725 50.5934 15.62 50.4841L15.6213 50.4831C16.4513 49.8676 17.164 49.4033 17.7684 49.084C18.3743 48.7641 18.8647 48.5935 19.2518 48.5582L19.2518 48.5582C19.8114 48.5071 20.16 48.7155 20.8934 49.202L20.8935 49.202C21.854 49.839 23.1812 50.7189 25.7027 50.7189C26.2112 50.7189 26.6232 50.3068 26.6232 49.7983C26.6232 49.2899 26.2112 48.8778 25.7027 48.8778C24.715 48.8778 23.993 48.7237 23.4072 48.4973C22.8203 48.2704 22.3663 47.9696 21.9111 47.6677L21.9111 47.6677C21.0983 47.1287 20.3633 46.7006 19.4054 46.6994C18.5053 46.6983 17.4251 47.0735 15.9087 48.0434C16.2714 47.2223 16.6073 46.3995 16.7411 45.6748C16.8918 44.858 16.7907 44.1312 16.1429 43.6814L16.0859 43.7636L16.1429 43.6814C15.135 42.9816 13.9609 43.3574 12.9629 43.9846C11.9611 44.6142 11.0957 45.5214 10.6711 45.9666L10.6694 45.9683C9.16333 47.5467 7.94934 49.279 7.89738 49.3534C7.60628 49.7702 7.70843 50.3439 8.12508 50.635L8.12509 50.635C8.54189 50.9262 9.11557 50.8241 9.40665 50.4075C9.41788 50.3915 10.6009 48.7046 12.0119 47.2281C12.8957 46.3033 13.5775 45.7622 14.0799 45.4657C14.331 45.3175 14.535 45.2318 14.6952 45.1891C14.8082 45.159 14.8962 45.151 14.9624 45.1557C14.955 45.2701 14.9228 45.4254 14.87 45.6111C14.8049 45.84 14.7116 46.1043 14.607 46.3751C14.3978 46.9165 14.1462 47.4772 13.9915 47.8218L13.9862 47.8334C13.6506 48.5811 13.3829 49.1773 13.2876 49.6557C13.2393 49.8983 13.2333 50.1188 13.2897 50.3187C13.3466 50.5206 13.4648 50.6931 13.6502 50.8423L13.7129 50.7643L13.6502 50.8423C13.8588 51.01 14.0815 51.0766 14.3023 51.0766Z" fill="black" stroke="black" stroke-width="0.2"/>
<path d="M27.7767 46.9411L27.777 46.9408L29.6123 45.4434L29.6755 45.5209L29.6123 45.4434C30.9257 44.3721 32.0901 43.129 33.0731 41.7483L33.1545 41.8063L33.0731 41.7483L35.6053 38.1921L33.4512 36.6582L30.9189 40.2144C29.936 41.5946 29.1421 43.1015 28.5589 44.6934L27.7444 46.9174L27.7767 46.9411ZM27.7767 46.9411C27.7711 46.9457 27.768 46.9481 27.7656 46.9498L27.7767 46.9411ZM27.7516 46.9416C27.7517 46.9416 27.7517 46.9416 27.7517 46.9417L27.6938 47.0231L27.7516 46.9416ZM27.7516 46.9416C27.7454 46.9371 27.7417 46.9336 27.7397 46.9314C27.7405 46.9285 27.7418 46.9247 27.7444 46.9175L27.7516 46.9416ZM26.017 46.2807L26.0169 46.2806L26.0155 46.2845C25.7237 47.0814 25.9925 47.9491 26.6839 48.4414C27.3767 48.9347 28.2847 48.9026 28.9408 48.3674L28.9408 48.3675L28.9439 48.3648C29.2092 48.1296 29.5248 47.8786 29.8794 47.5965C31.1253 46.6056 32.8525 45.2318 34.5727 42.8162L49.6318 21.6677L50.5626 22.3305L50.6206 22.2491L50.5626 22.3305C50.6419 22.387 50.6591 22.4962 50.6036 22.5741L47.0664 27.5415C46.7716 27.9556 46.8681 28.5304 47.2823 28.8253C47.6964 29.1201 48.2711 29.0237 48.5661 28.6095L52.1033 23.6421C52.7481 22.7366 52.536 21.4757 51.6306 20.8309L51.5732 20.9116L51.6306 20.8309L50.6997 20.1681L50.9725 19.7852C51.3201 19.2971 51.4351 18.6928 51.2921 18.1102L52.4962 16.4192C53.0375 15.6596 52.8607 14.6061 52.1005 14.0649L50.8556 13.1784C50.0964 12.6374 49.0425 12.8143 48.5015 13.5743C48.5015 13.5743 48.5015 13.5743 48.5015 13.5743L47.2965 15.2666C46.7247 15.3197 46.178 15.6116 45.8191 16.1155L45.9006 16.1735L45.8191 16.1155L29.4192 39.1465C27.6999 41.5611 26.9669 43.6414 26.4377 45.1434C26.287 45.5713 26.1527 45.9523 26.017 46.2807ZM47.3187 17.1834L47.3187 17.1833C47.3837 17.092 47.5113 17.0707 47.6023 17.1355L47.6023 17.1355L49.425 18.4335C49.5162 18.4984 49.5383 18.6253 49.4729 18.717L49.4729 18.7171L36.6732 36.6923L34.5191 35.1584L47.3187 17.1834ZM49.0837 15.9305L49.9124 14.7669L50.9078 15.4758L50.0793 16.6394L49.0837 15.9305Z" fill="black" stroke="black" stroke-width="0.2"/>
<path d="M43.6316 9.47675L43.5609 9.54745L43.6316 9.47674L35.135 0.980164C34.4385 0.283722 33.512 -0.1 32.5272 -0.1H7.76348C5.24162 -0.1 3.19004 1.95147 3.19004 4.47344V51.5266C3.19004 54.0484 5.24151 56.1 7.76348 56.1H40.1384C42.6602 56.1 44.7118 54.0485 44.7118 51.5266V32.7385C44.7118 32.23 44.2998 31.8179 43.7913 31.8179C43.2828 31.8179 42.8707 32.23 42.8707 32.7385V51.5266C42.8707 53.0331 41.6449 54.2589 40.1384 54.2589H7.76348C6.25694 54.2589 5.0311 53.0331 5.0311 51.5266V4.47344C5.0311 2.9669 6.25694 1.74106 7.76348 1.74106H32.5273C32.603 1.74106 32.6781 1.74658 32.753 1.75624V7.28547C32.753 9.80732 34.8045 11.8589 37.3263 11.8589H42.8557C42.8653 11.9338 42.8708 12.0089 42.8708 12.0845V16.1163C42.8707 16.6247 43.2828 17.0367 43.7912 17.0367C44.2996 17.0367 44.7117 16.6247 44.7117 16.1162V12.0844C44.7117 11.0996 44.328 10.1733 43.6316 9.47675ZM34.594 7.28547V3.04295L41.569 10.0178H37.3262C35.8197 10.0178 34.594 8.79201 34.594 7.28547Z" fill="black" stroke="black" stroke-width="0.2"/>
</g>
<defs>
<clipPath id="clip0_521_2226">
<rect width="56" height="57" fill="white"/>
</clipPath>
</defs>
</svg>
