<svg width="56" height="56" viewBox="0 0 56 56" fill="none" xmlns="http://www.w3.org/2000/svg">
<g clip-path="url(#clip0_521_2208)">
<path d="M35.1679 -0.0703458L35.1385 -0.1H35.0968H8.12903C6.86638 -0.1 5.9 0.877884 5.9 2.15109V53.8489C5.9 55.1221 6.86638 56.1 8.12903 56.1H47.871C49.1336 56.1 50.1 55.1221 50.1 53.8489V15.1114V15.1114V15.1113V15.1113V15.1113V15.1112V15.1112V15.1111V15.1111V15.1111V15.111V15.111V15.111V15.1109V15.1109V15.1108V15.1108V15.1108V15.1107V15.1107V15.1106V15.1106V15.1105V15.1104V15.1104V15.1103V15.1103V15.1102V15.1101V15.1101V15.11V15.11V15.1099V15.1098V15.1097V15.1097V15.1096V15.1095V15.1094V15.1093V15.1093V15.1092V15.1091V15.109V15.1089V15.1088V15.1087V15.1086V15.1085V15.1084V15.1083V15.1082V15.1081V15.108V15.1079V15.1078V15.1077V15.1076V15.1075V15.1074V15.1073V15.1071V15.107V15.1069V15.1068V15.1067V15.1065V15.1064V15.1063V15.1061V15.106V15.1059V15.1057V15.1056V15.1055V15.1053V15.1052V15.105V15.1049V15.1048V15.1046V15.1045V15.1043V15.1041V15.104V15.1038V15.1037V15.1035V15.1034V15.1032V15.103V15.1029V15.1027V15.1025V15.1024V15.1022V15.102V15.1018V15.1016V15.1015V15.1013V15.1011V15.1009V15.1007V15.1005V15.1004V15.1002V15.1V15.0998V15.0996V15.0994V15.0992V15.099V15.0988V15.0986V15.0984V15.0982V15.098V15.0977V15.0975V15.0973V15.0971V15.0969V15.0967V15.0964V15.0962V15.096V15.0958V15.0955V15.0953V15.0951V15.0949V15.0946V15.0944V15.0941V15.0939V15.0937V15.0934V15.0932V15.0929V15.0927V15.0924V15.0922V15.0919V15.0917V15.0914V15.0912V15.0909V15.0907V15.0904V15.0901V15.0899V15.0896V15.0893V15.0891V15.0888V15.0885V15.0882V15.088V15.0877V15.0874V15.0871V15.0868V15.0866V15.0863V15.086V15.0857V15.0854V15.0851V15.0848V15.0845V15.0842V15.0839V15.0836V15.0833V15.083V15.0827V15.0824V15.0821V15.0818V15.0815V15.0811V15.0808V15.0805V15.0802V15.0799V15.0796V15.0792V15.0789V15.0786V15.0782V15.0779V15.0776V15.0772V15.0769V15.0766V15.0762V15.0759V15.0756V15.0752V15.0749V15.0745V15.0742V15.0738V15.0735V15.0731V15.0728V15.0724V15.072V15.0717V15.0713V15.071V15.0706V15.0702V15.0699V15.0695V15.0691V15.0687V15.0684V15.068V15.0676V15.0672V15.0668V15.0665V15.0661V15.0657V15.0653V15.0649V15.0645V15.0641V15.0637V15.0633V15.0629V15.0625V15.0621V15.0617V15.0613V15.0609V15.0605V15.0601V15.0597V15.0593V15.0589V15.0585V15.058V15.0576V15.0538C50.1 14.9886 50.1001 14.8959 50.029 14.805V14.7708C50.029 14.7027 49.9959 14.6453 49.965 14.6036C49.9341 14.562 49.8944 14.5219 49.8607 14.4879L49.8582 14.4854L35.6646 0.144764L35.6621 0.14217C35.6284 0.108176 35.5887 0.0680457 35.5475 0.0368157C35.5063 0.00562871 35.4491 -0.0282968 35.3806 -0.0282968H35.3097C35.2404 -0.0282968 35.2077 -0.0300613 35.1679 -0.0703458ZM47.3474 14.3123H35.9065V2.75279L47.3474 14.3123ZM47.871 54.4659H8.12903C7.93917 54.4659 7.78857 54.4025 7.68559 54.2984C7.58252 54.1943 7.51935 54.0416 7.51935 53.8489V2.22279C7.51935 2.0301 7.58252 1.87743 7.68559 1.77329C7.78857 1.66924 7.93917 1.60576 8.12903 1.60576H34.2871V15.1293C34.2871 15.3668 34.3659 15.5727 34.5112 15.7195C34.6566 15.8664 34.8608 15.9464 35.0968 15.9464H48.4807V53.8489C48.4807 54.0416 48.4175 54.1943 48.3144 54.2984C48.2114 54.4025 48.0608 54.4659 47.871 54.4659ZM41.4839 23.6337H34.3871C34.1512 23.6337 33.9469 23.7136 33.8015 23.8605C33.6562 24.0073 33.5774 24.2132 33.5774 24.4507V31.521H27.2903C27.0544 31.521 26.8501 31.6009 26.7047 31.7478C26.5594 31.8947 26.4806 32.1005 26.4806 32.338V37.2572H20.1935C19.9576 37.2572 19.7534 37.3372 19.608 37.4841C19.4626 37.6309 19.3839 37.8367 19.3839 38.0743V42.9935H13.0968C12.8608 42.9935 12.6566 43.0734 12.5112 43.2203C12.3659 43.3671 12.2871 43.573 12.2871 43.8105V49.5467C12.2871 49.7843 12.3659 49.9901 12.5112 50.1369C12.6566 50.2838 12.8608 50.3638 13.0968 50.3638H41.4839C41.7198 50.3638 41.9241 50.2838 42.0695 50.1369C42.2148 49.9901 42.2935 49.7843 42.2935 49.5467V24.4507C42.2935 24.2132 42.2148 24.0073 42.0695 23.8605C41.9241 23.7136 41.7198 23.6337 41.4839 23.6337ZM13.9065 44.6275H19.3839V48.7297H13.9065V44.6275ZM21.0032 43.8105V38.8913H26.4806V48.7297H21.0032V43.8105ZM28.1 38.0743V33.1551H33.5774V48.7297H28.1V38.0743ZM40.6742 48.7297H35.1968V25.2677H40.6742V48.7297ZM11.6774 14.3123C11.4415 14.3123 11.2372 14.3922 11.0918 14.5391C10.9465 14.686 10.8677 14.8918 10.8677 15.1293C10.8677 15.3668 10.9465 15.5727 11.0918 15.7195C11.2372 15.8664 11.4415 15.9464 11.6774 15.9464H29.4194C29.6553 15.9464 29.8595 15.8664 30.0049 15.7195C30.1503 15.5727 30.229 15.3668 30.229 15.1293C30.229 14.8918 30.1503 14.686 30.0049 14.5391C29.8595 14.3922 29.6553 14.3123 29.4194 14.3123H11.6774ZM11.6774 19.3315C11.4415 19.3315 11.2372 19.4114 11.0918 19.5583C10.9465 19.7052 10.8677 19.911 10.8677 20.1485C10.8677 20.3861 10.9465 20.5919 11.0918 20.7387C11.2372 20.8856 11.4415 20.9656 11.6774 20.9656H24.4516C24.6876 20.9656 24.8918 20.8856 25.0372 20.7387C25.1825 20.5919 25.2613 20.3861 25.2613 20.1485C25.2613 19.911 25.1825 19.7052 25.0372 19.5583C24.8918 19.4114 24.6876 19.3315 24.4516 19.3315H11.6774ZM11.6774 25.9848H18.7742C19.0101 25.9848 19.2144 25.9048 19.3598 25.7579C19.5051 25.6111 19.5839 25.4053 19.5839 25.1677C19.5839 24.9302 19.5051 24.7244 19.3598 24.5775C19.2144 24.4306 19.0101 24.3507 18.7742 24.3507H11.6774C11.4415 24.3507 11.2372 24.4306 11.0918 24.5775C10.9465 24.7244 10.8677 24.9302 10.8677 25.1677C10.8677 25.4053 10.9465 25.6111 11.0918 25.7579C11.2372 25.9048 11.4415 25.9848 11.6774 25.9848Z" fill="black" stroke="black" stroke-width="0.2"/>
</g>
<defs>
<clipPath id="clip0_521_2208">
<rect width="56" height="56" fill="white"/>
</clipPath>
</defs>
</svg>
