<svg width="108" height="108" viewBox="0 0 108 108" fill="none" xmlns="http://www.w3.org/2000/svg">
<path d="M5.44573 77.6069V83.5782C5.44573 84.5114 5.89528 84.9764 6.79437 84.9764H7.31833C9.56607 84.9439 10.6915 83.727 10.6915 81.3289C10.6915 78.8982 9.80014 77.6565 8.019 77.6069H5.44573ZM7.44389 76.0831C8.82664 75.9498 9.51801 74.9344 9.51801 73.0355C9.51801 70.8715 8.4608 69.7553 6.34483 69.6871H5.44573V76.0831H7.44389V76.0831ZM7.9446 68.4889C11.5255 68.523 13.3159 69.9631 13.3159 72.8107C13.3159 74.4926 12.4075 75.7669 10.5923 76.6334C13.24 77.0504 14.6057 78.5649 14.6894 81.1801C14.6894 84.5439 12.6075 86.2259 8.44375 86.2259H0V85.2012C1.16572 85.2012 1.74859 84.7687 1.74859 83.9022V70.811C1.74859 69.9445 1.16572 69.5042 0 69.4872V68.4873H7.9446V68.4889Z" fill="black"/>
<path d="M24.9281 79.205H28.6501L26.8007 73.4585L24.9281 79.205ZM24.353 80.7303L23.5779 82.8541C23.4787 83.2199 23.4276 83.5625 23.4276 83.8787C23.4276 84.7623 23.9779 85.2026 25.0769 85.2026V86.2272H20.1304V85.2026C20.6636 85.2026 21.1628 84.6274 21.6294 83.4788L27.1247 68.4902H28.5741L34.1206 83.4788C34.6027 84.6274 35.1112 85.2026 35.6444 85.2026V86.2272H28.2749V85.2026C29.4577 85.2026 30.0483 84.7608 30.0483 83.8787C30.0483 83.595 29.9987 83.254 29.898 82.8541L29.2236 80.7303H24.353Z" fill="black"/>
<path d="M45.4339 69.7879V76.4583C45.4339 76.8753 45.6168 77.083 45.9842 77.083C48.3652 76.8504 49.5557 75.6336 49.5557 73.4354C49.5557 71.0203 48.3823 69.8049 46.0338 69.7879H45.4339V69.7879ZM52.4282 81.4544C53.0777 83.9688 54.152 85.2849 55.651 85.4012V86.2259H52.2778C50.1122 86.2088 48.7466 84.6679 48.1807 81.6048C47.7808 79.3726 47.139 78.2565 46.257 78.2565C45.9067 78.2565 45.6323 78.2813 45.4323 78.3309V82.6775C45.4323 84.3595 46.0477 85.2012 47.2816 85.2012V86.2259H39.9866V85.2012C41.1523 85.2012 41.7352 84.7687 41.7352 83.9022V70.811C41.7352 69.946 41.1523 69.5042 39.9866 69.4872V68.4873H45.4075C50.554 68.4873 53.2095 69.9956 53.3769 73.0091C53.3769 75.9079 51.9616 77.4814 49.1294 77.7309C50.6967 77.7821 51.7957 79.0222 52.4282 81.4544Z" fill="black"/>
<path d="M68.9126 85.026C70.1125 85.026 71.086 84.426 71.8362 83.2247C72.7012 81.8574 73.1353 79.9306 73.1353 77.4441C73.0857 74.9917 72.5943 73.0494 71.6611 71.6139C70.8286 70.38 69.8288 69.7615 68.6631 69.7615C67.5299 69.7615 66.5734 70.3629 65.7906 71.5628C64.9241 72.93 64.4916 74.891 64.4916 77.4425C64.5412 79.8283 65.0403 81.7381 65.9906 83.172C66.8215 84.409 67.7965 85.026 68.9126 85.026ZM77.206 77.4565C77.206 79.9554 76.5642 82.0124 75.2823 83.6262C73.884 85.4088 71.7603 86.2986 68.9126 86.2986C65.9642 86.2986 63.825 85.474 62.4918 83.8261C61.1091 82.0946 60.4177 79.9709 60.4177 77.4549C60.4177 74.8073 61.0595 72.6758 62.3415 71.059C63.7413 69.2778 65.8479 68.3865 68.6615 68.3865C71.6595 68.3865 73.8747 69.2778 75.3071 71.059C76.5735 72.6448 77.206 74.7763 77.206 77.4565Z" fill="black"/>
<path d="M95.3879 68.4888V73.3098H94.0393C94.0393 71.1117 93.444 70.0126 92.255 70.0126H91.0909V83.9036C91.0909 84.7686 91.6815 85.2011 92.8643 85.2011V86.2258H85.6188V85.2011C86.8016 85.2011 87.3922 84.7686 87.3922 83.9036V70.0126H86.2171C85.0189 70.0126 84.419 71.1117 84.419 73.3098H83.0703V68.4888H95.3879Z" fill="black"/>
<path d="M106.152 83.9052C106.152 84.7702 106.768 85.2026 108 85.2026V86.2273H100.68V85.2026C101.863 85.2026 102.454 84.7702 102.454 83.9052V70.8357C102.454 69.9878 101.863 69.5475 100.68 69.5134V68.4888H108V69.5134C106.768 69.5475 106.152 69.9878 106.152 70.8357V83.9052Z" fill="black"/>
<path d="M11.8757 91.6514H13.9871V95.2245H18.0888V91.6514H20.2017V101.236H18.0888V97.0924H13.9871V101.236H11.8757V91.6514Z" fill="#EF7A00"/>
<path d="M32.8403 97.6751C32.9799 98.0549 33.1814 98.382 33.4434 98.6564C33.7053 98.9323 34.0216 99.1462 34.3905 99.2997C34.761 99.4532 35.1671 99.5291 35.6089 99.5291C36.0507 99.5291 36.4569 99.4532 36.8274 99.2997C37.1979 99.1462 37.5125 98.9323 37.7745 98.6564C38.0365 98.3804 38.2365 98.0534 38.3775 97.6751C38.517 97.2953 38.5868 96.8861 38.5868 96.4427C38.5868 96.0009 38.517 95.5901 38.3775 95.2104C38.238 94.8306 38.0365 94.505 37.7745 94.2291C37.5125 93.9532 37.1963 93.7392 36.8274 93.5858C36.4569 93.4323 36.0507 93.3548 35.6089 93.3548C35.1671 93.3548 34.761 93.4308 34.3905 93.5858C34.02 93.7392 33.7038 93.9532 33.4434 94.2291C33.1814 94.505 32.9799 94.8321 32.8403 95.2104C32.7008 95.5901 32.6311 96.0009 32.6311 96.4427C32.6295 96.8861 32.6993 97.2953 32.8403 97.6751ZM30.8158 94.3717C31.0685 93.7485 31.4266 93.2168 31.8916 92.7735C32.3567 92.3317 32.907 91.9922 33.5426 91.7581C34.1781 91.5241 34.8664 91.4062 35.6074 91.4062C36.3561 91.4062 37.0475 91.5241 37.6784 91.7581C38.3093 91.9922 38.8581 92.3317 39.3231 92.7735C39.7882 93.2153 40.1463 93.7485 40.3989 94.3717C40.6516 94.9949 40.7787 95.6847 40.7787 96.4427C40.7787 97.2008 40.6516 97.8921 40.3989 98.5138C40.1463 99.1369 39.7866 99.6686 39.3231 100.112C38.8581 100.554 38.3093 100.893 37.6784 101.127C37.0459 101.361 36.3561 101.479 35.6074 101.479C34.868 101.479 34.1797 101.361 33.5426 101.127C32.9054 100.893 32.3551 100.554 31.8916 100.112C31.4266 99.6702 31.0685 99.1369 30.8158 98.5138C30.5631 97.8906 30.436 97.2008 30.436 96.4427C30.436 95.6847 30.5631 94.9949 30.8158 94.3717Z" fill="#EF7A00"/>
<path d="M51.0144 91.6514H54.2108L56.4167 97.9063H56.4446L58.6645 91.6514H61.8454V101.236H59.7341V93.8852H59.7062L57.1887 101.236H55.5781L53.1536 93.8852H53.1273V101.236H51.0144V91.6514Z" fill="#EF7A00"/>
<path d="M72.6765 91.6514H79.1887V93.5999H74.7878V95.3873H78.9454V97.3374H74.7878V99.2859H79.4321V101.236H72.6765V91.6514Z" fill="#EF7A00"/>
<path d="M94.6624 93.9935C94.4996 93.7858 94.2748 93.6277 93.985 93.5192C93.6966 93.4107 93.4114 93.3564 93.1324 93.3564C92.7805 93.3564 92.455 93.4401 92.1573 93.6076C91.8597 93.775 91.7109 94.0199 91.7109 94.3454C91.7109 94.671 91.8442 94.9112 92.1108 95.0694C92.3774 95.2275 92.8037 95.3918 93.3897 95.5639C93.8129 95.691 94.1663 95.8103 94.4454 95.9219C94.7244 96.0351 94.9957 96.1886 95.2577 96.3823C95.5196 96.5761 95.7289 96.8334 95.887 97.1543C96.0451 97.4752 96.1242 97.8659 96.1242 98.3247C96.1242 98.8394 96.0265 99.2967 95.8328 99.6981C95.639 100.1 95.3724 100.431 95.0344 100.693C94.6965 100.955 94.3043 101.152 93.8563 101.282C93.4099 101.413 92.934 101.479 92.4286 101.479C91.1466 101.479 90.0724 101.078 89.2058 100.275L90.7079 98.6239C90.9249 98.9045 91.1978 99.1246 91.5264 99.2874C91.855 99.4501 92.1961 99.5307 92.548 99.5307C92.9278 99.5307 93.2657 99.4424 93.5633 99.2672C93.861 99.0905 94.0098 98.8456 94.0098 98.5293C94.0098 98.196 93.8672 97.9403 93.5835 97.7651C93.2998 97.5884 92.8595 97.4117 92.2643 97.2303C91.8302 97.0861 91.4737 96.9575 91.1947 96.8443C90.9156 96.7311 90.6444 96.5777 90.3824 96.3839C90.1204 96.1901 89.9111 95.939 89.753 95.6321C89.5949 95.3251 89.5158 94.9546 89.5158 94.5221C89.5158 94.0261 89.6151 93.5812 89.8135 93.189C90.0119 92.7968 90.2832 92.4697 90.6258 92.2078C90.9683 91.9458 91.359 91.7474 91.7961 91.6125C92.2333 91.4776 92.6921 91.4094 93.1711 91.4094C93.74 91.4094 94.2748 91.49 94.7756 91.6528C95.2763 91.8156 95.7212 92.0682 96.1087 92.4108L94.6624 93.9935Z" fill="#EF7A00"/>
<path d="M46.2941 33.3745L35.984 35.2796L35.9809 44.1512L46.2941 43.9264V53.2553L33.5425 51.8834C33.4402 44.3589 33.606 36.4314 33.606 28.3426L46.2941 25.0268V33.3745ZM53.3133 14.4749L26.4985 21.8428V58.8607L53.3133 62.916V41.9655L48.8969 38.1505L53.3133 34.0953V14.4749V14.4749Z" fill="black"/>
<path d="M54.8184 14.4749V62.654L63.2543 61.5425V16.5459L54.8184 14.4749Z" fill="#EF7A00"/>
<path d="M74.3738 19.9128L81.6983 21.9405V58.7305L74.3738 59.9071V44.2768L64.4822 44.1466V33.1575L74.3738 33.8783V19.9128Z" fill="#EF7A00"/>
<path d="M54.1054 7.02002L9.29785 20.5359H24.5809L54.1085 12.3045V7.02002H54.1054Z" fill="#EF7A00"/>
<path d="M83.5941 20.5359H98.7036L54.1084 7.02002V12.3045L83.5941 20.5359Z" fill="black"/>
</svg>
