<svg width="190" height="48" viewBox="0 0 190 48" fill="none" xmlns="http://www.w3.org/2000/svg">
<path d="M87.4304 21.195V27.1494C87.4304 28.0799 87.8786 28.5437 88.7752 28.5437H89.2977C91.5391 28.5112 92.6613 27.2978 92.6613 24.9064C92.6613 22.4826 91.7725 21.2444 89.9964 21.195H87.4304ZM89.4229 19.6755C90.8017 19.5425 91.4912 18.53 91.4912 16.6364C91.4912 14.4785 90.4369 13.3655 88.3269 13.2975H87.4304V19.6755H89.4229ZM89.9222 12.1026C93.493 12.1366 95.2784 13.5727 95.2784 16.4123C95.2784 18.0895 94.3725 19.3601 92.5624 20.2242C95.2026 20.64 96.5645 22.1503 96.6479 24.758C96.6479 28.1124 94.5719 29.7896 90.4199 29.7896H82V28.7678C83.1624 28.7678 83.7437 28.3365 83.7437 27.4724V14.4182C83.7437 13.5541 83.1624 13.1151 82 13.0981V12.1011H89.9222V12.1026Z" fill="white"/>
<path d="M106.858 22.7878H110.569L108.725 17.0575L106.858 22.7878ZM106.284 24.3088L105.511 26.4266C105.412 26.7914 105.361 27.133 105.361 27.4483C105.361 28.3294 105.91 28.7684 107.006 28.7684V29.7902H102.073V28.7684C102.605 28.7684 103.103 28.195 103.568 27.0495L109.048 12.1033H110.493L116.024 27.0495C116.505 28.195 117.012 28.7684 117.544 28.7684V29.7902H110.195V28.7684C111.375 28.7684 111.963 28.3279 111.963 27.4483C111.963 27.1655 111.914 26.8254 111.814 26.4266L111.141 24.3088H106.284Z" fill="white"/>
<path d="M127.305 13.3975V20.049C127.305 20.4649 127.488 20.672 127.854 20.672C130.229 20.4401 131.416 19.2267 131.416 17.0348C131.416 14.6264 130.246 13.4145 127.904 13.3975H127.305ZM134.28 25.0311C134.928 27.5384 135.999 28.8508 137.494 28.9667V29.7891H134.13C131.971 29.7721 130.609 28.2356 130.045 25.1811C129.646 22.9551 129.006 21.8422 128.126 21.8422C127.777 21.8422 127.503 21.8669 127.304 21.9164V26.2508C127.304 27.9279 127.918 28.7673 129.148 28.7673V29.7891H121.874V28.7673C123.036 28.7673 123.617 28.336 123.617 27.4719V14.4177C123.617 13.5552 123.036 13.1146 121.874 13.0976V12.1006H127.279C132.411 12.1006 135.059 13.6046 135.226 16.6097C135.226 19.5003 133.815 21.0693 130.991 21.3181C132.553 21.3692 133.649 22.6058 134.28 25.0311Z" fill="white"/>
<path d="M150.718 28.5925C151.915 28.5925 152.885 27.9943 153.634 26.7963C154.496 25.4329 154.929 23.5115 154.929 21.0321C154.88 18.5866 154.39 16.6497 153.459 15.2183C152.629 13.9879 151.632 13.3711 150.469 13.3711C149.339 13.3711 148.386 13.9709 147.605 15.1673C146.741 16.5307 146.31 18.4861 146.31 21.0305C146.359 23.4095 146.857 25.3139 147.804 26.7438C148.633 27.9773 149.605 28.5925 150.718 28.5925ZM158.988 21.0444C158.988 23.5363 158.348 25.5875 157.07 27.1967C155.676 28.9743 153.558 29.8616 150.718 29.8616C147.778 29.8616 145.645 29.0393 144.316 27.3961C142.937 25.6694 142.247 23.5517 142.247 21.0429C142.247 18.4027 142.887 16.2772 144.166 14.6649C145.561 12.8888 147.662 12 150.468 12C153.457 12 155.666 12.8888 157.095 14.6649C158.358 16.2463 158.988 18.3718 158.988 21.0444Z" fill="white"/>
<path d="M177.119 12.1021V16.9095H175.774C175.774 14.7175 175.18 13.6216 173.995 13.6216H172.834V27.4734C172.834 28.336 173.423 28.7672 174.602 28.7672V29.789H167.377V28.7672C168.557 28.7672 169.146 28.336 169.146 27.4734V13.6216H167.974C166.779 13.6216 166.181 14.7175 166.181 16.9095H164.836V12.1021H177.119Z" fill="white"/>
<path d="M187.853 27.4749C187.853 28.3375 188.467 28.7688 189.695 28.7688V29.7905H182.396V28.7688C183.576 28.7688 184.165 28.3375 184.165 27.4749V14.4424C184.165 13.5968 183.576 13.1578 182.396 13.1238V12.1021H189.695V13.1238C188.467 13.1578 187.853 13.5968 187.853 14.4424V27.4749Z" fill="white"/>
<path d="M93.8425 35.199H95.9479V38.762H100.038V35.199H102.145V44.7566H100.038V40.6247H95.9479V44.7566H93.8425V35.199Z" fill="#EF7A00"/>
<path d="M114.748 41.2055C114.887 41.5842 115.088 41.9104 115.349 42.184C115.61 42.4592 115.926 42.6725 116.293 42.8255C116.663 42.9785 117.068 43.0543 117.508 43.0543C117.949 43.0543 118.354 42.9785 118.723 42.8255C119.093 42.6725 119.407 42.4592 119.668 42.184C119.929 41.9089 120.129 41.5827 120.269 41.2055C120.408 40.8268 120.478 40.4187 120.478 39.9766C120.478 39.5361 120.408 39.1264 120.269 38.7477C120.13 38.369 119.929 38.0444 119.668 37.7692C119.407 37.4941 119.091 37.2808 118.723 37.1277C118.354 36.9747 117.949 36.8974 117.508 36.8974C117.068 36.8974 116.663 36.9731 116.293 37.1277C115.924 37.2808 115.609 37.4941 115.349 37.7692C115.088 38.0444 114.887 38.3705 114.748 38.7477C114.609 39.1264 114.539 39.5361 114.539 39.9766C114.537 40.4187 114.607 40.8268 114.748 41.2055ZM112.729 37.9114C112.981 37.29 113.338 36.7598 113.802 36.3177C114.265 35.8772 114.814 35.5387 115.448 35.3052C116.082 35.0718 116.768 34.9543 117.507 34.9543C118.253 34.9543 118.943 35.0718 119.572 35.3052C120.201 35.5387 120.748 35.8772 121.212 36.3177C121.676 36.7583 122.033 37.29 122.285 37.9114C122.537 38.5329 122.664 39.2207 122.664 39.9766C122.664 40.7325 122.537 41.4219 122.285 42.0418C122.033 42.6632 121.674 43.1934 121.212 43.6355C120.748 44.0761 120.201 44.4146 119.572 44.648C118.941 44.8814 118.253 44.9989 117.507 44.9989C116.77 44.9989 116.083 44.8814 115.448 44.648C114.813 44.4146 114.264 44.0761 113.802 43.6355C113.338 43.195 112.981 42.6632 112.729 42.0418C112.477 41.4204 112.35 40.7325 112.35 39.9766C112.35 39.2207 112.477 38.5329 112.729 37.9114Z" fill="#EF7A00"/>
<path d="M132.871 35.199H136.058L138.258 41.4362H138.286L140.499 35.199H143.671V44.7566H141.566V37.4265H141.538L139.027 44.7566H137.421L135.004 37.4265H134.978V44.7566H132.871V35.199Z" fill="#EF7A00"/>
<path d="M154.471 35.199H160.965V37.142H156.577V38.9243H160.723V40.8689H156.577V42.812H161.208V44.7566H154.471V35.199Z" fill="#EF7A00"/>
<path d="M176.395 37.5353C176.233 37.3282 176.009 37.1705 175.72 37.0623C175.432 36.9541 175.148 36.9 174.87 36.9C174.519 36.9 174.194 36.9835 173.897 37.1504C173.6 37.3174 173.452 37.5616 173.452 37.8862C173.452 38.2108 173.585 38.4504 173.851 38.6081C174.117 38.7658 174.542 38.9296 175.126 39.1012C175.548 39.228 175.901 39.347 176.179 39.4583C176.457 39.5711 176.728 39.7242 176.989 39.9174C177.25 40.1106 177.459 40.3672 177.616 40.6872C177.774 41.0072 177.853 41.3967 177.853 41.8543C177.853 42.3675 177.756 42.8235 177.562 43.2238C177.369 43.6242 177.103 43.955 176.766 44.2162C176.429 44.4775 176.038 44.6738 175.591 44.8036C175.146 44.9335 174.672 44.9999 174.168 44.9999C172.889 44.9999 171.818 44.5996 170.954 43.7989L172.452 42.1526C172.668 42.4324 172.94 42.6519 173.268 42.8142C173.596 42.9765 173.936 43.0569 174.287 43.0569C174.666 43.0569 175.003 42.9688 175.299 42.7941C175.596 42.6179 175.745 42.3737 175.745 42.0583C175.745 41.726 175.602 41.4709 175.319 41.2962C175.037 41.12 174.598 40.9438 174.004 40.7629C173.571 40.6192 173.216 40.4909 172.937 40.378C172.659 40.2652 172.389 40.1122 172.127 39.9189C171.866 39.7257 171.657 39.4753 171.5 39.1692C171.342 38.8632 171.263 38.4937 171.263 38.0624C171.263 37.5678 171.362 37.1241 171.56 36.7331C171.758 36.342 172.028 36.0158 172.37 35.7546C172.712 35.4933 173.101 35.2955 173.537 35.161C173.973 35.0265 174.431 34.9585 174.908 34.9585C175.476 34.9585 176.009 35.0389 176.508 35.2012C177.007 35.3635 177.451 35.6155 177.838 35.9571L176.395 37.5353Z" fill="#EF7A00"/>
<path d="M31.77 22.6314L22.9163 24.2675L22.9136 31.8859L31.77 31.6928V39.7039L20.8197 38.5258C20.7318 32.0642 20.8742 25.2566 20.8742 18.3104L31.77 15.463V22.6314ZM37.7976 6.40161L14.7708 12.7287V44.5175L37.7976 47.9999V30.0089L34.0051 26.7328L37.7976 23.2505V6.40161Z" fill="white"/>
<path d="M39.0903 6V47.3733L46.3346 46.4188V7.77847L39.0903 6Z" fill="#EF7A00"/>
<path d="M55.8832 11L62.1731 12.7412V44.3343L55.8832 45.3446V31.9223L47.3889 31.8105V22.3737L55.8832 22.9927V11Z" fill="#EF7A00"/>
<path d="M38.478 0L0 11.6066H13.1242L38.4806 4.53802V0H38.478Z" fill="#EF7A00"/>
<path d="M63.8012 11.6066H76.7763L38.4807 0V4.53802L63.8012 11.6066Z" fill="white"/>
</svg>
