<svg width="48" height="48" viewBox="0 0 48 48" fill="none" xmlns="http://www.w3.org/2000/svg">
<path d="M19.8623 23.7491L14.327 24.7719L14.3254 29.5349L19.8623 29.4142V34.4227L13.0162 33.6861C12.9613 29.6464 13.0504 25.3903 13.0504 21.0476L19.8623 19.2674V23.7491ZM23.6307 13.6023L9.2345 17.558V37.4321L23.6307 39.6092V28.3614L21.2597 26.3132L23.6307 24.1361V13.6023Z" fill="black"/>
<path d="M24.4391 13.3511V39.2174L28.9682 38.6206V14.463L24.4391 13.3511Z" fill="#EF7A00"/>
<path d="M34.9378 16.4768L38.8702 17.5654V37.3171L34.9378 37.9488V29.5573L29.6272 29.4874V23.5875L34.9378 23.9745V16.4768Z" fill="#EF7A00"/>
<path d="M24.0561 9.59985L0 16.8562H8.20514L24.0578 12.437V9.59985H24.0561Z" fill="#EF7A00"/>
<path d="M39.8882 16.8562H48.0001L24.058 9.59985V12.437L39.8882 16.8562Z" fill="black"/>
</svg>
