<svg width="190" height="48" viewBox="0 0 190 48" fill="none" xmlns="http://www.w3.org/2000/svg">
<path d="M87.4304 21.1948V27.1492C87.4304 28.0798 87.8786 28.5435 88.7752 28.5435H89.2977C91.5391 28.5111 92.6613 27.2976 92.6613 24.9063C92.6613 22.4825 91.7725 21.2443 89.9964 21.1948H87.4304ZM89.4229 19.6753C90.8017 19.5424 91.4912 18.5299 91.4912 16.6363C91.4912 14.4784 90.4369 13.3654 88.3269 13.2974H87.4304V19.6753H89.4229ZM89.9222 12.1025C93.493 12.1365 95.2784 13.5725 95.2784 16.4122C95.2784 18.0894 94.3725 19.36 92.5624 20.2241C95.2026 20.6399 96.5645 22.1501 96.6479 24.7579C96.6479 28.1123 94.5719 29.7894 90.4199 29.7894H82V28.7677C83.1624 28.7677 83.7437 28.3364 83.7437 27.4723V14.4181C83.7437 13.554 83.1624 13.115 82 13.098V12.101H89.9222V12.1025Z" fill="black"/>
<path d="M106.858 22.7879H110.569L108.725 17.0577L106.858 22.7879ZM106.284 24.309L105.512 26.4267C105.413 26.7915 105.362 27.1331 105.362 27.4485C105.362 28.3296 105.91 28.7686 107.006 28.7686V29.7903H102.074V28.7686C102.605 28.7686 103.103 28.1951 103.569 27.0497L109.048 12.1034H110.494L116.025 27.0497C116.505 28.1951 117.012 28.7686 117.544 28.7686V29.7903H110.195V28.7686C111.375 28.7686 111.964 28.328 111.964 27.4485C111.964 27.1656 111.914 26.8255 111.814 26.4267L111.141 24.309H106.284Z" fill="black"/>
<path d="M127.305 13.3976V20.0492C127.305 20.465 127.488 20.6721 127.854 20.6721C130.229 20.4403 131.416 19.2268 131.416 17.0349C131.416 14.6265 130.246 13.4146 127.904 13.3976H127.305ZM134.28 25.0313C134.928 27.5385 135.999 28.8509 137.494 28.9668V29.7892H134.13C131.971 29.7722 130.609 28.2357 130.045 25.1812C129.646 22.9553 129.006 21.8423 128.126 21.8423C127.777 21.8423 127.503 21.867 127.304 21.9165V26.2509C127.304 27.9281 127.918 28.7674 129.148 28.7674V29.7892H121.874V28.7674C123.036 28.7674 123.617 28.3362 123.617 27.4721V14.4179C123.617 13.5553 123.036 13.1147 121.874 13.0977V12.1007H127.279C132.411 12.1007 135.059 13.6048 135.226 16.6098C135.226 19.5004 133.815 21.0694 130.991 21.3183C132.553 21.3693 133.649 22.6059 134.28 25.0313Z" fill="black"/>
<path d="M150.718 28.5925C151.914 28.5925 152.885 27.9943 153.633 26.7963C154.496 25.4329 154.929 23.5115 154.929 21.0321C154.879 18.5866 154.389 16.6497 153.459 15.2183C152.629 13.9879 151.632 13.3711 150.469 13.3711C149.339 13.3711 148.385 13.9709 147.605 15.1673C146.741 16.5307 146.309 18.4861 146.309 21.0305C146.359 23.4095 146.857 25.3139 147.804 26.7438C148.633 27.9773 149.605 28.5925 150.718 28.5925ZM158.988 21.0444C158.988 23.5363 158.348 25.5875 157.07 27.1967C155.675 28.9743 153.558 29.8616 150.718 29.8616C147.778 29.8616 145.645 29.0393 144.315 27.3961C142.936 25.6694 142.247 23.5517 142.247 21.0429C142.247 18.4027 142.887 16.2772 144.165 14.6649C145.561 12.8888 147.662 12 150.468 12C153.457 12 155.666 12.8888 157.094 14.6649C158.357 16.2463 158.988 18.3718 158.988 21.0444Z" fill="black"/>
<path d="M177.119 12.1021V16.9095H175.774C175.774 14.7175 175.18 13.6216 173.995 13.6216H172.834V27.4734C172.834 28.336 173.423 28.7672 174.602 28.7672V29.789H167.377V28.7672C168.557 28.7672 169.146 28.336 169.146 27.4734V13.6216H167.974C166.779 13.6216 166.181 14.7175 166.181 16.9095H164.836V12.1021H177.119Z" fill="black"/>
<path d="M187.853 27.4749C187.853 28.3375 188.466 28.7688 189.695 28.7688V29.7905H182.396V28.7688C183.575 28.7688 184.164 28.3375 184.164 27.4749V14.4424C184.164 13.5968 183.575 13.1578 182.396 13.1238V12.1021H189.695V13.1238C188.466 13.1578 187.853 13.5968 187.853 14.4424V27.4749Z" fill="black"/>
<path d="M93.8423 35.1989H95.9477V38.762H100.038V35.1989H102.145V44.7566H100.038V40.6247H95.9477V44.7566H93.8423V35.1989Z" fill="#EF7A00"/>
<path d="M114.748 41.2056C114.887 41.5843 115.088 41.9105 115.349 42.1841C115.61 42.4593 115.926 42.6726 116.293 42.8256C116.663 42.9786 117.068 43.0544 117.508 43.0544C117.949 43.0544 118.354 42.9786 118.723 42.8256C119.093 42.6726 119.407 42.4593 119.668 42.1841C119.929 41.909 120.129 41.5828 120.269 41.2056C120.408 40.8269 120.478 40.4188 120.478 39.9767C120.478 39.5362 120.408 39.1265 120.269 38.7478C120.13 38.3691 119.929 38.0445 119.668 37.7693C119.407 37.4942 119.091 37.2809 118.723 37.1278C118.354 36.9748 117.949 36.8975 117.508 36.8975C117.068 36.8975 116.663 36.9732 116.293 37.1278C115.924 37.2809 115.609 37.4942 115.349 37.7693C115.088 38.0445 114.887 38.3706 114.748 38.7478C114.609 39.1265 114.539 39.5362 114.539 39.9767C114.537 40.4188 114.607 40.8269 114.748 41.2056ZM112.729 37.9115C112.981 37.2901 113.338 36.7599 113.802 36.3178C114.265 35.8773 114.814 35.5387 115.448 35.3053C116.082 35.0719 116.768 34.9544 117.507 34.9544C118.253 34.9544 118.943 35.0719 119.572 35.3053C120.201 35.5387 120.748 35.8773 121.212 36.3178C121.676 36.7584 122.033 37.2901 122.285 37.9115C122.537 38.5329 122.664 39.2208 122.664 39.9767C122.664 40.7326 122.537 41.422 122.285 42.0419C122.033 42.6633 121.674 43.1935 121.212 43.6356C120.748 44.0762 120.201 44.4147 119.572 44.6481C118.941 44.8815 118.253 44.999 117.507 44.999C116.77 44.999 116.083 44.8815 115.448 44.6481C114.813 44.4147 114.264 44.0762 113.802 43.6356C113.338 43.1951 112.981 42.6633 112.729 42.0419C112.477 41.4205 112.35 40.7326 112.35 39.9767C112.35 39.2208 112.477 38.5329 112.729 37.9115Z" fill="#EF7A00"/>
<path d="M132.871 35.1989H136.058L138.258 41.4362H138.286L140.499 35.1989H143.671V44.7566H141.566V37.4264H141.538L139.027 44.7566H137.421L135.004 37.4264H134.978V44.7566H132.871V35.1989Z" fill="#EF7A00"/>
<path d="M154.471 35.1989H160.965V37.142H156.577V38.9243H160.722V40.8689H156.577V42.812H161.208V44.7566H154.471V35.1989Z" fill="#EF7A00"/>
<path d="M176.395 37.5354C176.233 37.3283 176.009 37.1706 175.72 37.0624C175.432 36.9542 175.148 36.9001 174.87 36.9001C174.519 36.9001 174.194 36.9835 173.897 37.1505C173.6 37.3174 173.452 37.5617 173.452 37.8863C173.452 38.2109 173.585 38.4505 173.851 38.6082C174.117 38.7658 174.542 38.9297 175.126 39.1013C175.548 39.228 175.901 39.3471 176.179 39.4584C176.457 39.5712 176.728 39.7242 176.989 39.9174C177.25 40.1107 177.459 40.3673 177.616 40.6873C177.774 41.0072 177.853 41.3968 177.853 41.8543C177.853 42.3675 177.756 42.8235 177.562 43.2239C177.369 43.6243 177.103 43.9551 176.766 44.2163C176.429 44.4775 176.038 44.6739 175.591 44.8037C175.146 44.9335 174.672 45 174.168 45C172.889 45 171.818 44.5997 170.954 43.7989L172.452 42.1527C172.668 42.4325 172.94 42.652 173.268 42.8143C173.596 42.9766 173.936 43.057 174.287 43.057C174.666 43.057 175.003 42.9688 175.299 42.7942C175.596 42.6179 175.745 42.3737 175.745 42.0584C175.745 41.726 175.602 41.471 175.319 41.2963C175.037 41.1201 174.598 40.9439 174.004 40.763C173.571 40.6192 173.216 40.4909 172.937 40.3781C172.659 40.2653 172.389 40.1122 172.127 39.919C171.866 39.7258 171.657 39.4754 171.5 39.1693C171.342 38.8632 171.263 38.4938 171.263 38.0625C171.263 37.5678 171.362 37.1242 171.56 36.7331C171.758 36.342 172.028 36.0159 172.37 35.7546C172.712 35.4934 173.101 35.2955 173.537 35.1611C173.973 35.0266 174.431 34.9586 174.908 34.9586C175.476 34.9586 176.009 35.0389 176.508 35.2012C177.007 35.3636 177.451 35.6155 177.838 35.9571L176.395 37.5354Z" fill="#EF7A00"/>
<path d="M31.7703 22.6316L22.9165 24.2676L22.9139 31.886L31.7703 31.693V39.7041L20.8199 38.526C20.7321 32.0644 20.8745 25.2567 20.8745 18.3105L31.7703 15.4631V22.6316ZM37.7979 6.40173L14.771 12.7289V44.5176L37.7979 48V30.009L34.0053 26.733L37.7979 23.2506V6.40173Z" fill="black"/>
<path d="M39.0903 6V47.3733L46.3346 46.4188V7.77847L39.0903 6Z" fill="#EF7A00"/>
<path d="M55.8835 11L62.1733 12.7412V44.3343L55.8835 45.3446V31.9223L47.3892 31.8105V22.3737L55.8835 22.9927V11Z" fill="#EF7A00"/>
<path d="M38.478 0L0 11.6066H13.1242L38.4806 4.53802V0H38.478Z" fill="#EF7A00"/>
<path d="M63.801 11.6066H76.7761L38.4805 0V4.53802L63.801 11.6066Z" fill="black"/>
</svg>
